solid ascii
  facet normal 2.168404e-016 1.000000e+000 -1.387779e-016
    outer loop
      vertex   8.000000e+000 1.400000e+001 1.250000e+001
      vertex   8.000000e+000 1.400000e+001 0.000000e+000
      vertex   -8.000000e+000 1.400000e+001 0.000000e+000
    endloop
  endfacet
  facet normal 1.084202e-016 1.000000e+000 -0.000000e+000
    outer loop
      vertex   -8.000000e+000 1.400000e+001 0.000000e+000
      vertex   -8.000000e+000 1.400000e+001 1.250000e+001
      vertex   8.000000e+000 1.400000e+001 1.250000e+001
    endloop
  endfacet
  facet normal 0.000000e+000 0.000000e+000 -1.000000e+000
    outer loop
      vertex   -8.000000e+000 -1.400000e+001 0.000000e+000
      vertex   -8.000000e+000 1.400000e+001 0.000000e+000
      vertex   8.000000e+000 1.400000e+001 0.000000e+000
    endloop
  endfacet
  facet normal 0.000000e+000 -0.000000e+000 -1.000000e+000
    outer loop
      vertex   8.000000e+000 1.400000e+001 0.000000e+000
      vertex   8.000000e+000 -1.400000e+001 0.000000e+000
      vertex   -8.000000e+000 -1.400000e+001 0.000000e+000
    endloop
  endfacet
  facet normal 0.000000e+000 0.000000e+000 1.000000e+000
    outer loop
      vertex   -8.000000e+000 1.250000e+001 1.250000e+001
      vertex   8.000000e+000 1.250000e+001 1.250000e+001
      vertex   8.000000e+000 1.400000e+001 1.250000e+001
    endloop
  endfacet
  facet normal 0.000000e+000 0.000000e+000 1.000000e+000
    outer loop
      vertex   8.000000e+000 1.400000e+001 1.250000e+001
      vertex   -8.000000e+000 1.400000e+001 1.250000e+001
      vertex   -8.000000e+000 1.250000e+001 1.250000e+001
    endloop
  endfacet
  facet normal -0.000000e+000 -1.000000e+000 0.000000e+000
    outer loop
      vertex   8.000000e+000 1.250000e+001 1.250000e+001
      vertex   -8.000000e+000 1.250000e+001 1.250000e+001
      vertex   -8.000000e+000 1.250000e+001 2.500000e+000
    endloop
  endfacet
  facet normal 0.000000e+000 -1.000000e+000 0.000000e+000
    outer loop
      vertex   -8.000000e+000 1.250000e+001 2.500000e+000
      vertex   8.000000e+000 1.250000e+001 2.500000e+000
      vertex   8.000000e+000 1.250000e+001 1.250000e+001
    endloop
  endfacet
  facet normal 1.000000e+000 0.000000e+000 0.000000e+000
    outer loop
      vertex   8.000000e+000 1.400000e+001 1.250000e+001
      vertex   8.000000e+000 1.250000e+001 1.250000e+001
      vertex   8.000000e+000 1.250000e+001 2.500000e+000
    endloop
  endfacet
  facet normal 1.000000e+000 0.000000e+000 0.000000e+000
    outer loop
      vertex   8.000000e+000 -1.400000e+001 0.000000e+000
      vertex   8.000000e+000 1.400000e+001 0.000000e+000
      vertex   8.000000e+000 1.150000e+001 1.500000e+000
    endloop
  endfacet
  facet normal 1.000000e+000 -0.000000e+000 0.000000e+000
    outer loop
      vertex   8.000000e+000 1.250000e+001 2.500000e+000
      vertex   8.000000e+000 1.400000e+001 0.000000e+000
      vertex   8.000000e+000 1.400000e+001 1.250000e+001
    endloop
  endfacet
  facet normal 1.000000e+000 0.000000e+000 0.000000e+000
    outer loop
      vertex   8.000000e+000 1.400000e+001 0.000000e+000
      vertex   8.000000e+000 1.175882e+001 1.534074e+000
      vertex   8.000000e+000 1.150000e+001 1.500000e+000
    endloop
  endfacet
  facet normal 1.000000e+000 0.000000e+000 0.000000e+000
    outer loop
      vertex   8.000000e+000 1.400000e+001 0.000000e+000
      vertex   8.000000e+000 1.220711e+001 1.792893e+000
      vertex   8.000000e+000 1.200000e+001 1.633975e+000
    endloop
  endfacet
  facet normal 1.000000e+000 0.000000e+000 0.000000e+000
    outer loop
      vertex   8.000000e+000 1.250000e+001 2.500000e+000
      vertex   8.000000e+000 1.246593e+001 2.241181e+000
      vertex   8.000000e+000 1.400000e+001 0.000000e+000
    endloop
  endfacet
  facet normal 1.000000e+000 0.000000e+000 0.000000e+000
    outer loop
      vertex   8.000000e+000 1.200000e+001 1.633975e+000
      vertex   8.000000e+000 1.175882e+001 1.534074e+000
      vertex   8.000000e+000 1.400000e+001 0.000000e+000
    endloop
  endfacet
  facet normal 1.000000e+000 0.000000e+000 0.000000e+000
    outer loop
      vertex   8.000000e+000 1.246593e+001 2.241181e+000
      vertex   8.000000e+000 1.236603e+001 2.000000e+000
      vertex   8.000000e+000 1.400000e+001 0.000000e+000
    endloop
  endfacet
  facet normal 1.000000e+000 0.000000e+000 0.000000e+000
    outer loop
      vertex   8.000000e+000 1.236603e+001 2.000000e+000
      vertex   8.000000e+000 1.220711e+001 1.792893e+000
      vertex   8.000000e+000 1.400000e+001 0.000000e+000
    endloop
  endfacet
  facet normal 1.000000e+000 0.000000e+000 0.000000e+000
    outer loop
      vertex   8.000000e+000 1.150000e+001 1.500000e+000
      vertex   8.000000e+000 -1.400000e+001 1.500000e+000
      vertex   8.000000e+000 -1.400000e+001 0.000000e+000
    endloop
  endfacet
  facet normal 0.000000e+000 -9.914449e-001 1.305262e-001
    outer loop
      vertex   8.000000e+000 1.246593e+001 2.241181e+000
      vertex   8.000000e+000 1.250000e+001 2.500000e+000
      vertex   -8.000000e+000 1.250000e+001 2.500000e+000
    endloop
  endfacet
  facet normal 0.000000e+000 -9.238795e-001 3.826834e-001
    outer loop
      vertex   8.000000e+000 1.236603e+001 2.000000e+000
      vertex   8.000000e+000 1.246593e+001 2.241181e+000
      vertex   -8.000000e+000 1.246593e+001 2.241181e+000
    endloop
  endfacet
  facet normal 0.000000e+000 -7.933533e-001 6.087614e-001
    outer loop
      vertex   8.000000e+000 1.220711e+001 1.792893e+000
      vertex   8.000000e+000 1.236603e+001 2.000000e+000
      vertex   -8.000000e+000 1.236603e+001 2.000000e+000
    endloop
  endfacet
  facet normal 0.000000e+000 -6.087614e-001 7.933533e-001
    outer loop
      vertex   8.000000e+000 1.200000e+001 1.633975e+000
      vertex   8.000000e+000 1.220711e+001 1.792893e+000
      vertex   -8.000000e+000 1.220711e+001 1.792893e+000
    endloop
  endfacet
  facet normal 0.000000e+000 -3.826834e-001 9.238795e-001
    outer loop
      vertex   8.000000e+000 1.175882e+001 1.534074e+000
      vertex   8.000000e+000 1.200000e+001 1.633975e+000
      vertex   -8.000000e+000 1.200000e+001 1.633975e+000
    endloop
  endfacet
  facet normal 0.000000e+000 -1.305262e-001 9.914449e-001
    outer loop
      vertex   8.000000e+000 1.150000e+001 1.500000e+000
      vertex   8.000000e+000 1.175882e+001 1.534074e+000
      vertex   -8.000000e+000 1.175882e+001 1.534074e+000
    endloop
  endfacet
  facet normal 0.000000e+000 -1.305262e-001 9.914449e-001
    outer loop
      vertex   -8.000000e+000 1.175882e+001 1.534074e+000
      vertex   -8.000000e+000 1.150000e+001 1.500000e+000
      vertex   8.000000e+000 1.150000e+001 1.500000e+000
    endloop
  endfacet
  facet normal 0.000000e+000 -3.826834e-001 9.238795e-001
    outer loop
      vertex   -8.000000e+000 1.200000e+001 1.633975e+000
      vertex   -8.000000e+000 1.175882e+001 1.534074e+000
      vertex   8.000000e+000 1.175882e+001 1.534074e+000
    endloop
  endfacet
  facet normal 0.000000e+000 -6.087614e-001 7.933533e-001
    outer loop
      vertex   -8.000000e+000 1.220711e+001 1.792893e+000
      vertex   -8.000000e+000 1.200000e+001 1.633975e+000
      vertex   8.000000e+000 1.200000e+001 1.633975e+000
    endloop
  endfacet
  facet normal 0.000000e+000 -7.933533e-001 6.087614e-001
    outer loop
      vertex   -8.000000e+000 1.236603e+001 2.000000e+000
      vertex   -8.000000e+000 1.220711e+001 1.792893e+000
      vertex   8.000000e+000 1.220711e+001 1.792893e+000
    endloop
  endfacet
  facet normal 0.000000e+000 -9.238795e-001 3.826834e-001
    outer loop
      vertex   -8.000000e+000 1.246593e+001 2.241181e+000
      vertex   -8.000000e+000 1.236603e+001 2.000000e+000
      vertex   8.000000e+000 1.236603e+001 2.000000e+000
    endloop
  endfacet
  facet normal 0.000000e+000 -9.914449e-001 1.305262e-001
    outer loop
      vertex   -8.000000e+000 1.250000e+001 2.500000e+000
      vertex   -8.000000e+000 1.246593e+001 2.241181e+000
      vertex   8.000000e+000 1.246593e+001 2.241181e+000
    endloop
  endfacet
  facet normal 0.000000e+000 -0.000000e+000 1.000000e+000
    outer loop
      vertex   8.000000e+000 -1.400000e+001 1.500000e+000
      vertex   8.000000e+000 1.150000e+001 1.500000e+000
      vertex   -3.794708e-016 -5.000000e+000 1.500000e+000
    endloop
  endfacet
  facet normal 0.000000e+000 0.000000e+000 1.000000e+000
    outer loop
      vertex   -8.000000e+000 1.150000e+001 1.500000e+000
      vertex   -8.000000e+000 -5.000000e+000 1.500000e+000
      vertex   -3.794708e-016 -5.000000e+000 1.500000e+000
    endloop
  endfacet
  facet normal 0.000000e+000 -0.000000e+000 1.000000e+000
    outer loop
      vertex   -3.794708e-016 -5.000000e+000 1.500000e+000
      vertex   8.000000e+000 1.150000e+001 1.500000e+000
      vertex   -8.000000e+000 1.150000e+001 1.500000e+000
    endloop
  endfacet
  facet normal 0.000000e+000 0.000000e+000 1.000000e+000
    outer loop
      vertex   -3.794708e-016 -5.000000e+000 1.500000e+000
      vertex   0.000000e+000 -1.400000e+001 1.500000e+000
      vertex   8.000000e+000 -1.400000e+001 1.500000e+000
    endloop
  endfacet
  facet normal 0.000000e+000 9.914449e-001 1.305262e-001
    outer loop
      vertex   -8.000000e+000 -5.965926e+000 2.241181e+000
      vertex   -8.000000e+000 -6.000000e+000 2.500000e+000
      vertex   -1.000000e+000 -6.000000e+000 2.500000e+000
    endloop
  endfacet
  facet normal 2.433163e-003 9.978455e-001 6.556173e-002
    outer loop
      vertex   -1.000000e+000 -6.000000e+000 2.500000e+000
      vertex   -9.914449e-001 -5.991445e+000 2.369474e+000
      vertex   -8.000000e+000 -5.965926e+000 2.241181e+000
    endloop
  endfacet
  facet normal -1.135184e-016 9.238795e-001 3.826834e-001
    outer loop
      vertex   -8.000000e+000 -5.866025e+000 2.000000e+000
      vertex   -8.000000e+000 -5.965926e+000 2.241181e+000
      vertex   -9.659258e-001 -5.965926e+000 2.241181e+000
    endloop
  endfacet
  facet normal 2.398715e-003 9.466793e-001 3.221686e-001
    outer loop
      vertex   -9.659258e-001 -5.965926e+000 2.241181e+000
      vertex   -9.238795e-001 -5.923880e+000 2.117317e+000
      vertex   -8.000000e+000 -5.866025e+000 2.000000e+000
    endloop
  endfacet
  facet normal 0.000000e+000 7.933533e-001 6.087614e-001
    outer loop
      vertex   -8.000000e+000 -5.707107e+000 1.792893e+000
      vertex   -8.000000e+000 -5.866025e+000 2.000000e+000
      vertex   -8.660254e-001 -5.866025e+000 2.000000e+000
    endloop
  endfacet
  facet normal 2.345692e-003 8.307426e-001 5.566518e-001
    outer loop
      vertex   -8.660254e-001 -5.866025e+000 2.000000e+000
      vertex   -7.933533e-001 -5.793353e+000 1.891239e+000
      vertex   -8.000000e+000 -5.707107e+000 1.792893e+000
    endloop
  endfacet
  facet normal -4.866210e-017 6.087614e-001 7.933533e-001
    outer loop
      vertex   -8.000000e+000 -5.500000e+000 1.633975e+000
      vertex   -8.000000e+000 -5.707107e+000 1.792893e+000
      vertex   -7.071068e-001 -5.707107e+000 1.792893e+000
    endloop
  endfacet
  facet normal 2.279899e-003 6.580544e-001 7.529669e-001
    outer loop
      vertex   -7.071068e-001 -5.707107e+000 1.792893e+000
      vertex   -6.087614e-001 -5.608761e+000 1.706647e+000
      vertex   -8.000000e+000 -5.500000e+000 1.633975e+000
    endloop
  endfacet
  facet normal -5.238816e-017 3.826834e-001 9.238795e-001
    outer loop
      vertex   -8.000000e+000 -5.258819e+000 1.534074e+000
      vertex   -8.000000e+000 -5.500000e+000 1.633975e+000
      vertex   -5.000000e-001 -5.500000e+000 1.633975e+000
    endloop
  endfacet
  facet normal 2.207704e-003 4.405109e-001 8.977445e-001
    outer loop
      vertex   -5.000000e-001 -5.500000e+000 1.633975e+000
      vertex   -3.826834e-001 -5.382683e+000 1.576120e+000
      vertex   -8.000000e+000 -5.258819e+000 1.534074e+000
    endloop
  endfacet
  facet normal -5.730513e-017 1.305262e-001 9.914449e-001
    outer loop
      vertex   -8.000000e+000 -5.000000e+000 1.500000e+000
      vertex   -8.000000e+000 -5.258819e+000 1.534074e+000
      vertex   -2.588190e-001 -5.258819e+000 1.534074e+000
    endloop
  endfacet
  facet normal 2.135085e-003 1.930356e-001 9.811894e-001
    outer loop
      vertex   -2.588190e-001 -5.258819e+000 1.534074e+000
      vertex   -1.305262e-001 -5.130526e+000 1.508555e+000
      vertex   -8.000000e+000 -5.000000e+000 1.500000e+000
    endloop
  endfacet
  facet normal 7.114172e-018 6.540313e-002 9.978589e-001
    outer loop
      vertex   -1.305262e-001 -5.130526e+000 1.508555e+000
      vertex   -3.794708e-016 -5.000000e+000 1.500000e+000
      vertex   -8.000000e+000 -5.000000e+000 1.500000e+000
    endloop
  endfacet
  facet normal -9.884392e-017 3.214395e-001 9.469301e-001
    outer loop
      vertex   -3.826834e-001 -5.382683e+000 1.576120e+000
      vertex   -2.588190e-001 -5.258819e+000 1.534074e+000
      vertex   -8.000000e+000 -5.258819e+000 1.534074e+000
    endloop
  endfacet
  facet normal -4.721702e-017 5.555702e-001 8.314696e-001
    outer loop
      vertex   -6.087614e-001 -5.608761e+000 1.706647e+000
      vertex   -5.000000e-001 -5.500000e+000 1.633975e+000
      vertex   -8.000000e+000 -5.500000e+000 1.633975e+000
    endloop
  endfacet
  facet normal -6.936844e-017 7.518398e-001 6.593458e-001
    outer loop
      vertex   -7.933533e-001 -5.793353e+000 1.891239e+000
      vertex   -7.071068e-001 -5.707107e+000 1.792893e+000
      vertex   -8.000000e+000 -5.707107e+000 1.792893e+000
    endloop
  endfacet
  facet normal 0.000000e+000 8.968727e-001 4.422887e-001
    outer loop
      vertex   -9.238795e-001 -5.923880e+000 2.117317e+000
      vertex   -8.660254e-001 -5.866025e+000 2.000000e+000
      vertex   -8.000000e+000 -5.866025e+000 2.000000e+000
    endloop
  endfacet
  facet normal -1.209169e-016 9.807853e-001 1.950903e-001
    outer loop
      vertex   -9.914449e-001 -5.991445e+000 2.369474e+000
      vertex   -9.659258e-001 -5.965926e+000 2.241181e+000
      vertex   -8.000000e+000 -5.965926e+000 2.241181e+000
    endloop
  endfacet
  facet normal -1.000000e+000 0.000000e+000 0.000000e+000
    outer loop
      vertex   -8.000000e+000 1.400000e+001 0.000000e+000
      vertex   -8.000000e+000 -1.400000e+001 0.000000e+000
      vertex   -8.000000e+000 -5.000000e+000 1.500000e+000
    endloop
  endfacet
  facet normal -1.000000e+000 7.489134e-015 -4.493481e-014
    outer loop
      vertex   -8.000000e+000 -1.400000e+001 0.000000e+000
      vertex   -8.000000e+000 -5.258819e+000 1.534074e+000
      vertex   -8.000000e+000 -5.000000e+000 1.500000e+000
    endloop
  endfacet
  facet normal -1.000000e+000 0.000000e+000 0.000000e+000
    outer loop
      vertex   -8.000000e+000 -5.000000e+000 1.500000e+000
      vertex   -8.000000e+000 1.150000e+001 1.500000e+000
      vertex   -8.000000e+000 1.400000e+001 0.000000e+000
    endloop
  endfacet
  facet normal -1.000000e+000 -4.336809e-016 2.507721e-031
    outer loop
      vertex   -8.000000e+000 -1.400000e+001 0.000000e+000
      vertex   -8.000000e+000 -1.400000e+001 3.000000e+000
      vertex   -8.000000e+000 -6.000000e+000 2.500000e+000
    endloop
  endfacet
  facet normal -1.000000e+000 0.000000e+000 0.000000e+000
    outer loop
      vertex   -8.000000e+000 1.400000e+001 0.000000e+000
      vertex   -8.000000e+000 1.200000e+001 1.633975e+000
      vertex   -8.000000e+000 1.220711e+001 1.792893e+000
    endloop
  endfacet
  facet normal -1.000000e+000 -2.787877e-016 -6.730530e-016
    outer loop
      vertex   -8.000000e+000 -1.400000e+001 0.000000e+000
      vertex   -8.000000e+000 -5.500000e+000 1.633975e+000
      vertex   -8.000000e+000 -5.258819e+000 1.534074e+000
    endloop
  endfacet
  facet normal -1.000000e+000 -4.336809e-016 0.000000e+000
    outer loop
      vertex   -8.000000e+000 -1.400000e+001 3.000000e+000
      vertex   -8.000000e+000 -6.000000e+000 3.000000e+000
      vertex   -8.000000e+000 -6.000000e+000 2.500000e+000
    endloop
  endfacet
  facet normal -1.000000e+000 0.000000e+000 -0.000000e+000
    outer loop
      vertex   -8.000000e+000 1.400000e+001 1.250000e+001
      vertex   -8.000000e+000 1.400000e+001 0.000000e+000
      vertex   -8.000000e+000 1.250000e+001 2.500000e+000
    endloop
  endfacet
  facet normal -1.000000e+000 0.000000e+000 0.000000e+000
    outer loop
      vertex   -8.000000e+000 1.400000e+001 0.000000e+000
      vertex   -8.000000e+000 1.175882e+001 1.534074e+000
      vertex   -8.000000e+000 1.200000e+001 1.633975e+000
    endloop
  endfacet
  facet normal -1.000000e+000 -3.263999e-016 -4.253726e-016
    outer loop
      vertex   -8.000000e+000 -1.400000e+001 0.000000e+000
      vertex   -8.000000e+000 -5.707107e+000 1.792893e+000
      vertex   -8.000000e+000 -5.500000e+000 1.633975e+000
    endloop
  endfacet
  facet normal -1.000000e+000 -4.165437e-016 -5.483902e-017
    outer loop
      vertex   -8.000000e+000 -6.000000e+000 2.500000e+000
      vertex   -8.000000e+000 -5.965926e+000 2.241181e+000
      vertex   -8.000000e+000 -1.400000e+001 0.000000e+000
    endloop
  endfacet
  facet normal -1.000000e+000 0.000000e+000 0.000000e+000
    outer loop
      vertex   -8.000000e+000 1.400000e+001 0.000000e+000
      vertex   -8.000000e+000 1.246593e+001 2.241181e+000
      vertex   -8.000000e+000 1.250000e+001 2.500000e+000
    endloop
  endfacet
  facet normal -1.000000e+000 0.000000e+000 0.000000e+000
    outer loop
      vertex   -8.000000e+000 1.150000e+001 1.500000e+000
      vertex   -8.000000e+000 1.175882e+001 1.534074e+000
      vertex   -8.000000e+000 1.400000e+001 0.000000e+000
    endloop
  endfacet
  facet normal -1.000000e+000 -3.871113e-016 -1.603467e-016
    outer loop
      vertex   -8.000000e+000 -5.965926e+000 2.241181e+000
      vertex   -8.000000e+000 -5.866025e+000 2.000000e+000
      vertex   -8.000000e+000 -1.400000e+001 0.000000e+000
    endloop
  endfacet
  facet normal -1.000000e+000 0.000000e+000 0.000000e+000
    outer loop
      vertex   -8.000000e+000 1.400000e+001 0.000000e+000
      vertex   -8.000000e+000 1.236603e+001 2.000000e+000
      vertex   -8.000000e+000 1.246593e+001 2.241181e+000
    endloop
  endfacet
  facet normal -1.000000e+000 -3.588355e-016 -2.753441e-016
    outer loop
      vertex   -8.000000e+000 -5.866025e+000 2.000000e+000
      vertex   -8.000000e+000 -5.707107e+000 1.792893e+000
      vertex   -8.000000e+000 -1.400000e+001 0.000000e+000
    endloop
  endfacet
  facet normal -1.000000e+000 0.000000e+000 0.000000e+000
    outer loop
      vertex   -8.000000e+000 1.220711e+001 1.792893e+000
      vertex   -8.000000e+000 1.236603e+001 2.000000e+000
      vertex   -8.000000e+000 1.400000e+001 0.000000e+000
    endloop
  endfacet
  facet normal -1.000000e+000 0.000000e+000 0.000000e+000
    outer loop
      vertex   -8.000000e+000 1.250000e+001 2.500000e+000
      vertex   -8.000000e+000 1.250000e+001 1.250000e+001
      vertex   -8.000000e+000 1.400000e+001 1.250000e+001
    endloop
  endfacet
  facet normal 2.168404e-016 -1.000000e+000 0.000000e+000
    outer loop
      vertex   8.000000e+000 -1.400000e+001 0.000000e+000
      vertex   8.000000e+000 -1.400000e+001 1.500000e+000
      vertex   0.000000e+000 -1.400000e+001 1.500000e+000
    endloop
  endfacet
  facet normal -1.812861e-015 -1.000000e+000 6.463789e-015
    outer loop
      vertex   -8.000000e+000 -1.400000e+001 0.000000e+000
      vertex   -9.659258e-001 -1.400000e+001 2.241181e+000
      vertex   -1.000000e+000 -1.400000e+001 2.500000e+000
    endloop
  endfacet
  facet normal 1.515736e-016 -1.000000e+000 3.659309e-016
    outer loop
      vertex   -8.000000e+000 -1.400000e+001 0.000000e+000
      vertex   -2.588190e-001 -1.400000e+001 1.534074e+000
      vertex   -5.000000e-001 -1.400000e+001 1.633975e+000
    endloop
  endfacet
  facet normal 2.168404e-016 -1.000000e+000 2.507721e-031
    outer loop
      vertex   0.000000e+000 -1.400000e+001 1.500000e+000
      vertex   -8.000000e+000 -1.400000e+001 0.000000e+000
      vertex   8.000000e+000 -1.400000e+001 0.000000e+000
    endloop
  endfacet
  facet normal 2.891206e-016 -1.000000e+000 5.782412e-016
    outer loop
      vertex   -1.000000e+000 -1.400000e+001 2.500000e+000
      vertex   -8.000000e+000 -1.400000e+001 3.000000e+000
      vertex   -8.000000e+000 -1.400000e+001 0.000000e+000
    endloop
  endfacet
  facet normal 8.944810e-017 -1.000000e+000 6.794258e-016
    outer loop
      vertex   0.000000e+000 -1.400000e+001 1.500000e+000
      vertex   -2.588190e-001 -1.400000e+001 1.534074e+000
      vertex   -8.000000e+000 -1.400000e+001 0.000000e+000
    endloop
  endfacet
  facet normal 2.178644e-016 -1.000000e+000 9.024237e-017
    outer loop
      vertex   -8.000000e+000 -1.400000e+001 0.000000e+000
      vertex   -8.660254e-001 -1.400000e+001 2.000000e+000
      vertex   -9.659258e-001 -1.400000e+001 2.241181e+000
    endloop
  endfacet
  facet normal 1.801480e-016 -1.000000e+000 2.347734e-016
    outer loop
      vertex   -5.000000e-001 -1.400000e+001 1.633975e+000
      vertex   -7.071068e-001 -1.400000e+001 1.792893e+000
      vertex   -8.000000e+000 -1.400000e+001 0.000000e+000
    endloop
  endfacet
  facet normal 2.001151e-016 -1.000000e+000 1.535537e-016
    outer loop
      vertex   -7.071068e-001 -1.400000e+001 1.792893e+000
      vertex   -8.660254e-001 -1.400000e+001 2.000000e+000
      vertex   -8.000000e+000 -1.400000e+001 0.000000e+000
    endloop
  endfacet
  facet normal 2.478176e-016 -1.000000e+000 0.000000e+000
    outer loop
      vertex   -1.000000e+000 -1.400000e+001 2.500000e+000
      vertex   -1.000000e+000 -1.400000e+001 3.000000e+000
      vertex   -8.000000e+000 -1.400000e+001 3.000000e+000
    endloop
  endfacet
  facet normal 1.000000e+000 -5.421011e-017 0.000000e+000
    outer loop
      vertex   -1.000000e+000 -6.000000e+000 3.000000e+000
      vertex   -1.000000e+000 -1.400000e+001 3.000000e+000
      vertex   -1.000000e+000 -1.400000e+001 2.500000e+000
    endloop
  endfacet
  facet normal 1.000000e+000 -5.421011e-017 0.000000e+000
    outer loop
      vertex   -1.000000e+000 -1.400000e+001 2.500000e+000
      vertex   -1.000000e+000 -6.000000e+000 2.500000e+000
      vertex   -1.000000e+000 -6.000000e+000 3.000000e+000
    endloop
  endfacet
  facet normal -0.000000e+000 1.000000e+000 0.000000e+000
    outer loop
      vertex   -8.000000e+000 -6.000000e+000 3.000000e+000
      vertex   -1.000000e+000 -6.000000e+000 3.000000e+000
      vertex   -1.000000e+000 -6.000000e+000 2.500000e+000
    endloop
  endfacet
  facet normal 0.000000e+000 1.000000e+000 0.000000e+000
    outer loop
      vertex   -1.000000e+000 -6.000000e+000 2.500000e+000
      vertex   -8.000000e+000 -6.000000e+000 2.500000e+000
      vertex   -8.000000e+000 -6.000000e+000 3.000000e+000
    endloop
  endfacet
  facet normal 0.000000e+000 0.000000e+000 1.000000e+000
    outer loop
      vertex   -8.000000e+000 -6.000000e+000 3.000000e+000
      vertex   -8.000000e+000 -1.400000e+001 3.000000e+000
      vertex   -1.000000e+000 -1.400000e+001 3.000000e+000
    endloop
  endfacet
  facet normal 0.000000e+000 -0.000000e+000 1.000000e+000
    outer loop
      vertex   -1.000000e+000 -1.400000e+001 3.000000e+000
      vertex   -1.000000e+000 -6.000000e+000 3.000000e+000
      vertex   -8.000000e+000 -6.000000e+000 3.000000e+000
    endloop
  endfacet
  facet normal 1.932641e-001 1.897767e-003 9.811449e-001
    outer loop
      vertex   0.000000e+000 -1.400000e+001 1.500000e+000
      vertex   -1.305262e-001 -5.130526e+000 1.508555e+000
      vertex   -2.588190e-001 -5.258819e+000 1.534074e+000
    endloop
  endfacet
  facet normal 6.540313e-002 2.757619e-018 9.978589e-001
    outer loop
      vertex   0.000000e+000 -1.400000e+001 1.500000e+000
      vertex   -3.794708e-016 -5.000000e+000 1.500000e+000
      vertex   -1.305262e-001 -5.130526e+000 1.508555e+000
    endloop
  endfacet
  facet normal 4.407147e-001 1.954924e-003 8.976451e-001
    outer loop
      vertex   -2.588190e-001 -1.400000e+001 1.534074e+000
      vertex   -3.826834e-001 -5.382683e+000 1.576120e+000
      vertex   -5.000000e-001 -5.500000e+000 1.633975e+000
    endloop
  endfacet
  facet normal 3.214395e-001 -7.542527e-018 9.469301e-001
    outer loop
      vertex   -2.588190e-001 -1.400000e+001 1.534074e+000
      vertex   -2.588190e-001 -5.258819e+000 1.534074e+000
      vertex   -3.826834e-001 -5.382683e+000 1.576120e+000
    endloop
  endfacet
  facet normal 6.582068e-001 2.011321e-003 7.528345e-001
    outer loop
      vertex   -5.000000e-001 -1.400000e+001 1.633975e+000
      vertex   -6.087614e-001 -5.608761e+000 1.706647e+000
      vertex   -7.071068e-001 -5.707107e+000 1.792893e+000
    endloop
  endfacet
  facet normal 5.555702e-001 -1.407674e-017 8.314696e-001
    outer loop
      vertex   -5.000000e-001 -1.400000e+001 1.633975e+000
      vertex   -5.000000e-001 -5.500000e+000 1.633975e+000
      vertex   -6.087614e-001 -5.608761e+000 1.706647e+000
    endloop
  endfacet
  facet normal 8.308307e-001 2.062353e-003 5.565214e-001
    outer loop
      vertex   -7.071068e-001 -1.400000e+001 1.792893e+000
      vertex   -7.933533e-001 -5.793353e+000 1.891239e+000
      vertex   -8.660254e-001 -5.866025e+000 2.000000e+000
    endloop
  endfacet
  facet normal 7.518398e-001 -3.931783e-017 6.593458e-001
    outer loop
      vertex   -7.071068e-001 -1.400000e+001 1.792893e+000
      vertex   -7.071068e-001 -5.707107e+000 1.792893e+000
      vertex   -7.933533e-001 -5.793353e+000 1.891239e+000
    endloop
  endfacet
  facet normal 9.467105e-001 2.103228e-003 3.220789e-001
    outer loop
      vertex   -8.660254e-001 -1.400000e+001 2.000000e+000
      vertex   -9.238795e-001 -5.923880e+000 2.117317e+000
      vertex   -9.659258e-001 -5.965926e+000 2.241181e+000
    endloop
  endfacet
  facet normal 8.968727e-001 -4.781876e-017 4.422887e-001
    outer loop
      vertex   -8.660254e-001 -1.400000e+001 2.000000e+000
      vertex   -8.660254e-001 -5.866025e+000 2.000000e+000
      vertex   -9.238795e-001 -5.923880e+000 2.117317e+000
    endloop
  endfacet
  facet normal 9.978475e-001 2.129665e-003 6.554197e-002
    outer loop
      vertex   -9.659258e-001 -1.400000e+001 2.241181e+000
      vertex   -9.914449e-001 -5.991445e+000 2.369474e+000
      vertex   -1.000000e+000 -6.000000e+000 2.500000e+000
    endloop
  endfacet
  facet normal 9.807853e-001 -5.294298e-017 1.950903e-001
    outer loop
      vertex   -9.659258e-001 -1.400000e+001 2.241181e+000
      vertex   -9.659258e-001 -5.965926e+000 2.241181e+000
      vertex   -9.914449e-001 -5.991445e+000 2.369474e+000
    endloop
  endfacet
  facet normal 9.914449e-001 -5.374633e-017 1.305262e-001
    outer loop
      vertex   -1.000000e+000 -6.000000e+000 2.500000e+000
      vertex   -1.000000e+000 -1.400000e+001 2.500000e+000
      vertex   -9.659258e-001 -1.400000e+001 2.241181e+000
    endloop
  endfacet
  facet normal 9.238795e-001 -4.987119e-017 3.826834e-001
    outer loop
      vertex   -9.659258e-001 -5.965926e+000 2.241181e+000
      vertex   -9.659258e-001 -1.400000e+001 2.241181e+000
      vertex   -8.660254e-001 -1.400000e+001 2.000000e+000
    endloop
  endfacet
  facet normal 7.933533e-001 -4.229939e-017 6.087614e-001
    outer loop
      vertex   -8.660254e-001 -5.866025e+000 2.000000e+000
      vertex   -8.660254e-001 -1.400000e+001 2.000000e+000
      vertex   -7.071068e-001 -1.400000e+001 1.792893e+000
    endloop
  endfacet
  facet normal 6.087614e-001 -3.183547e-017 7.933533e-001
    outer loop
      vertex   -7.071068e-001 -5.707107e+000 1.792893e+000
      vertex   -7.071068e-001 -1.400000e+001 1.792893e+000
      vertex   -5.000000e-001 -1.400000e+001 1.633975e+000
    endloop
  endfacet
  facet normal 3.826834e-001 -2.761252e-017 9.238795e-001
    outer loop
      vertex   -5.000000e-001 -5.500000e+000 1.633975e+000
      vertex   -5.000000e-001 -1.400000e+001 1.633975e+000
      vertex   -2.588190e-001 -1.400000e+001 1.534074e+000
    endloop
  endfacet
  facet normal 1.305262e-001 -1.811868e-017 9.914449e-001
    outer loop
      vertex   -2.588190e-001 -5.258819e+000 1.534074e+000
      vertex   -2.588190e-001 -1.400000e+001 1.534074e+000
      vertex   0.000000e+000 -1.400000e+001 1.500000e+000
    endloop
  endfacet
endsolid
