solid ascii
  facet normal 9.937122e-001 1.119645e-001 0.000000e+000
    outer loop
      vertex   -1.596239e+001 1.666219e+000 -2.000000e+000
      vertex   -1.600000e+001 2.000000e+000 -2.000000e+000
      vertex   -1.600000e+001 2.000000e+000 0.000000e+000
    endloop
  endfacet
  facet normal 9.438833e-001 3.302791e-001 0.000000e+000
    outer loop
      vertex   -1.585145e+001 1.349174e+000 -2.000000e+000
      vertex   -1.596239e+001 1.666219e+000 -2.000000e+000
      vertex   -1.596239e+001 1.666219e+000 0.000000e+000
    endloop
  endfacet
  facet normal 8.467242e-001 5.320321e-001 0.000000e+000
    outer loop
      vertex   -1.567275e+001 1.064765e+000 -2.000000e+000
      vertex   -1.585145e+001 1.349174e+000 -2.000000e+000
      vertex   -1.585145e+001 1.349174e+000 0.000000e+000
    endloop
  endfacet
  facet normal 7.071068e-001 7.071068e-001 0.000000e+000
    outer loop
      vertex   -1.543523e+001 8.272528e-001 -2.000000e+000
      vertex   -1.567275e+001 1.064765e+000 -2.000000e+000
      vertex   -1.567275e+001 1.064765e+000 0.000000e+000
    endloop
  endfacet
  facet normal 5.320321e-001 8.467242e-001 0.000000e+000
    outer loop
      vertex   -1.515083e+001 6.485467e-001 -2.000000e+000
      vertex   -1.543523e+001 8.272528e-001 -2.000000e+000
      vertex   -1.543523e+001 8.272528e-001 0.000000e+000
    endloop
  endfacet
  facet normal 3.302791e-001 9.438833e-001 0.000000e+000
    outer loop
      vertex   -1.483378e+001 5.376081e-001 -2.000000e+000
      vertex   -1.515083e+001 6.485467e-001 -2.000000e+000
      vertex   -1.515083e+001 6.485467e-001 0.000000e+000
    endloop
  endfacet
  facet normal 1.119645e-001 9.937122e-001 0.000000e+000
    outer loop
      vertex   -1.450000e+001 5.000000e-001 -2.000000e+000
      vertex   -1.483378e+001 5.376081e-001 -2.000000e+000
      vertex   -1.483378e+001 5.376081e-001 0.000000e+000
    endloop
  endfacet
  facet normal -1.119645e-001 9.937122e-001 0.000000e+000
    outer loop
      vertex   -1.416622e+001 5.376081e-001 -2.000000e+000
      vertex   -1.450000e+001 5.000000e-001 -2.000000e+000
      vertex   -1.450000e+001 5.000000e-001 0.000000e+000
    endloop
  endfacet
  facet normal -3.302791e-001 9.438833e-001 0.000000e+000
    outer loop
      vertex   -1.384917e+001 6.485467e-001 -2.000000e+000
      vertex   -1.416622e+001 5.376081e-001 -2.000000e+000
      vertex   -1.416622e+001 5.376081e-001 0.000000e+000
    endloop
  endfacet
  facet normal -5.320321e-001 8.467242e-001 0.000000e+000
    outer loop
      vertex   -1.356477e+001 8.272528e-001 -2.000000e+000
      vertex   -1.384917e+001 6.485467e-001 -2.000000e+000
      vertex   -1.384917e+001 6.485467e-001 0.000000e+000
    endloop
  endfacet
  facet normal -7.071068e-001 7.071068e-001 0.000000e+000
    outer loop
      vertex   -1.332725e+001 1.064765e+000 -2.000000e+000
      vertex   -1.356477e+001 8.272528e-001 -2.000000e+000
      vertex   -1.356477e+001 8.272528e-001 0.000000e+000
    endloop
  endfacet
  facet normal -8.467242e-001 5.320321e-001 0.000000e+000
    outer loop
      vertex   -1.314855e+001 1.349174e+000 -2.000000e+000
      vertex   -1.332725e+001 1.064765e+000 -2.000000e+000
      vertex   -1.332725e+001 1.064765e+000 0.000000e+000
    endloop
  endfacet
  facet normal -9.438833e-001 3.302791e-001 0.000000e+000
    outer loop
      vertex   -1.303761e+001 1.666219e+000 -2.000000e+000
      vertex   -1.314855e+001 1.349174e+000 -2.000000e+000
      vertex   -1.314855e+001 1.349174e+000 0.000000e+000
    endloop
  endfacet
  facet normal -9.937122e-001 1.119645e-001 0.000000e+000
    outer loop
      vertex   -1.300000e+001 2.000000e+000 -2.000000e+000
      vertex   -1.303761e+001 1.666219e+000 -2.000000e+000
      vertex   -1.303761e+001 1.666219e+000 0.000000e+000
    endloop
  endfacet
  facet normal -9.937122e-001 -1.119645e-001 -2.462628e-017
    outer loop
      vertex   -1.303761e+001 2.333781e+000 -2.000000e+000
      vertex   -1.300000e+001 2.000000e+000 -2.000000e+000
      vertex   -1.300000e+001 2.000000e+000 0.000000e+000
    endloop
  endfacet
  facet normal -9.438833e-001 -3.302791e-001 0.000000e+000
    outer loop
      vertex   -1.314855e+001 2.650826e+000 -2.000000e+000
      vertex   -1.303761e+001 2.333781e+000 -2.000000e+000
      vertex   -1.303761e+001 2.333781e+000 0.000000e+000
    endloop
  endfacet
  facet normal -8.467242e-001 -5.320321e-001 0.000000e+000
    outer loop
      vertex   -1.332725e+001 2.935235e+000 -2.000000e+000
      vertex   -1.314855e+001 2.650826e+000 -2.000000e+000
      vertex   -1.314855e+001 2.650826e+000 0.000000e+000
    endloop
  endfacet
  facet normal -7.071068e-001 -7.071068e-001 0.000000e+000
    outer loop
      vertex   -1.356477e+001 3.172747e+000 -2.000000e+000
      vertex   -1.332725e+001 2.935235e+000 -2.000000e+000
      vertex   -1.332725e+001 2.935235e+000 0.000000e+000
    endloop
  endfacet
  facet normal -5.320321e-001 -8.467242e-001 0.000000e+000
    outer loop
      vertex   -1.384917e+001 3.351453e+000 -2.000000e+000
      vertex   -1.356477e+001 3.172747e+000 -2.000000e+000
      vertex   -1.356477e+001 3.172747e+000 0.000000e+000
    endloop
  endfacet
  facet normal -3.302791e-001 -9.438833e-001 0.000000e+000
    outer loop
      vertex   -1.416622e+001 3.462392e+000 -2.000000e+000
      vertex   -1.384917e+001 3.351453e+000 -2.000000e+000
      vertex   -1.384917e+001 3.351453e+000 0.000000e+000
    endloop
  endfacet
  facet normal -1.119645e-001 -9.937122e-001 0.000000e+000
    outer loop
      vertex   -1.450000e+001 3.500000e+000 -2.000000e+000
      vertex   -1.416622e+001 3.462392e+000 -2.000000e+000
      vertex   -1.416622e+001 3.462392e+000 0.000000e+000
    endloop
  endfacet
  facet normal 1.119645e-001 -9.937122e-001 0.000000e+000
    outer loop
      vertex   -1.483378e+001 3.462392e+000 -2.000000e+000
      vertex   -1.450000e+001 3.500000e+000 -2.000000e+000
      vertex   -1.450000e+001 3.500000e+000 0.000000e+000
    endloop
  endfacet
  facet normal 3.302791e-001 -9.438833e-001 0.000000e+000
    outer loop
      vertex   -1.515083e+001 3.351453e+000 -2.000000e+000
      vertex   -1.483378e+001 3.462392e+000 -2.000000e+000
      vertex   -1.483378e+001 3.462392e+000 0.000000e+000
    endloop
  endfacet
  facet normal 5.320321e-001 -8.467242e-001 0.000000e+000
    outer loop
      vertex   -1.543523e+001 3.172747e+000 -2.000000e+000
      vertex   -1.515083e+001 3.351453e+000 -2.000000e+000
      vertex   -1.515083e+001 3.351453e+000 0.000000e+000
    endloop
  endfacet
  facet normal 7.071068e-001 -7.071068e-001 0.000000e+000
    outer loop
      vertex   -1.567275e+001 2.935235e+000 -2.000000e+000
      vertex   -1.543523e+001 3.172747e+000 -2.000000e+000
      vertex   -1.543523e+001 3.172747e+000 0.000000e+000
    endloop
  endfacet
  facet normal 8.467242e-001 -5.320321e-001 0.000000e+000
    outer loop
      vertex   -1.585145e+001 2.650826e+000 -2.000000e+000
      vertex   -1.567275e+001 2.935235e+000 -2.000000e+000
      vertex   -1.567275e+001 2.935235e+000 0.000000e+000
    endloop
  endfacet
  facet normal 9.438833e-001 -3.302791e-001 0.000000e+000
    outer loop
      vertex   -1.596239e+001 2.333781e+000 -2.000000e+000
      vertex   -1.585145e+001 2.650826e+000 -2.000000e+000
      vertex   -1.585145e+001 2.650826e+000 0.000000e+000
    endloop
  endfacet
  facet normal 9.937122e-001 -1.119645e-001 0.000000e+000
    outer loop
      vertex   -1.600000e+001 2.000000e+000 -2.000000e+000
      vertex   -1.596239e+001 2.333781e+000 -2.000000e+000
      vertex   -1.596239e+001 2.333781e+000 0.000000e+000
    endloop
  endfacet
  facet normal 9.937122e-001 -1.119645e-001 0.000000e+000
    outer loop
      vertex   -1.596239e+001 2.333781e+000 0.000000e+000
      vertex   -1.600000e+001 2.000000e+000 0.000000e+000
      vertex   -1.600000e+001 2.000000e+000 -2.000000e+000
    endloop
  endfacet
  facet normal 9.438833e-001 -3.302791e-001 0.000000e+000
    outer loop
      vertex   -1.585145e+001 2.650826e+000 0.000000e+000
      vertex   -1.596239e+001 2.333781e+000 0.000000e+000
      vertex   -1.596239e+001 2.333781e+000 -2.000000e+000
    endloop
  endfacet
  facet normal 8.467242e-001 -5.320321e-001 0.000000e+000
    outer loop
      vertex   -1.567275e+001 2.935235e+000 0.000000e+000
      vertex   -1.585145e+001 2.650826e+000 0.000000e+000
      vertex   -1.585145e+001 2.650826e+000 -2.000000e+000
    endloop
  endfacet
  facet normal 7.071068e-001 -7.071068e-001 0.000000e+000
    outer loop
      vertex   -1.543523e+001 3.172747e+000 0.000000e+000
      vertex   -1.567275e+001 2.935235e+000 0.000000e+000
      vertex   -1.567275e+001 2.935235e+000 -2.000000e+000
    endloop
  endfacet
  facet normal 5.320321e-001 -8.467242e-001 0.000000e+000
    outer loop
      vertex   -1.515083e+001 3.351453e+000 0.000000e+000
      vertex   -1.543523e+001 3.172747e+000 0.000000e+000
      vertex   -1.543523e+001 3.172747e+000 -2.000000e+000
    endloop
  endfacet
  facet normal 3.302791e-001 -9.438833e-001 0.000000e+000
    outer loop
      vertex   -1.483378e+001 3.462392e+000 0.000000e+000
      vertex   -1.515083e+001 3.351453e+000 0.000000e+000
      vertex   -1.515083e+001 3.351453e+000 -2.000000e+000
    endloop
  endfacet
  facet normal 1.119645e-001 -9.937122e-001 0.000000e+000
    outer loop
      vertex   -1.450000e+001 3.500000e+000 0.000000e+000
      vertex   -1.483378e+001 3.462392e+000 0.000000e+000
      vertex   -1.483378e+001 3.462392e+000 -2.000000e+000
    endloop
  endfacet
  facet normal -1.119645e-001 -9.937122e-001 0.000000e+000
    outer loop
      vertex   -1.416622e+001 3.462392e+000 0.000000e+000
      vertex   -1.450000e+001 3.500000e+000 0.000000e+000
      vertex   -1.450000e+001 3.500000e+000 -2.000000e+000
    endloop
  endfacet
  facet normal -3.302791e-001 -9.438833e-001 0.000000e+000
    outer loop
      vertex   -1.384917e+001 3.351453e+000 0.000000e+000
      vertex   -1.416622e+001 3.462392e+000 0.000000e+000
      vertex   -1.416622e+001 3.462392e+000 -2.000000e+000
    endloop
  endfacet
  facet normal -5.320321e-001 -8.467242e-001 0.000000e+000
    outer loop
      vertex   -1.356477e+001 3.172747e+000 0.000000e+000
      vertex   -1.384917e+001 3.351453e+000 0.000000e+000
      vertex   -1.384917e+001 3.351453e+000 -2.000000e+000
    endloop
  endfacet
  facet normal -7.071068e-001 -7.071068e-001 0.000000e+000
    outer loop
      vertex   -1.332725e+001 2.935235e+000 0.000000e+000
      vertex   -1.356477e+001 3.172747e+000 0.000000e+000
      vertex   -1.356477e+001 3.172747e+000 -2.000000e+000
    endloop
  endfacet
  facet normal -8.467242e-001 -5.320321e-001 0.000000e+000
    outer loop
      vertex   -1.314855e+001 2.650826e+000 0.000000e+000
      vertex   -1.332725e+001 2.935235e+000 0.000000e+000
      vertex   -1.332725e+001 2.935235e+000 -2.000000e+000
    endloop
  endfacet
  facet normal -9.438833e-001 -3.302791e-001 0.000000e+000
    outer loop
      vertex   -1.303761e+001 2.333781e+000 0.000000e+000
      vertex   -1.314855e+001 2.650826e+000 0.000000e+000
      vertex   -1.314855e+001 2.650826e+000 -2.000000e+000
    endloop
  endfacet
  facet normal -9.937122e-001 -1.119645e-001 0.000000e+000
    outer loop
      vertex   -1.300000e+001 2.000000e+000 0.000000e+000
      vertex   -1.303761e+001 2.333781e+000 0.000000e+000
      vertex   -1.303761e+001 2.333781e+000 -2.000000e+000
    endloop
  endfacet
  facet normal -9.937122e-001 1.119645e-001 2.462628e-017
    outer loop
      vertex   -1.303761e+001 1.666219e+000 0.000000e+000
      vertex   -1.300000e+001 2.000000e+000 0.000000e+000
      vertex   -1.300000e+001 2.000000e+000 -2.000000e+000
    endloop
  endfacet
  facet normal -9.438833e-001 3.302791e-001 0.000000e+000
    outer loop
      vertex   -1.314855e+001 1.349174e+000 0.000000e+000
      vertex   -1.303761e+001 1.666219e+000 0.000000e+000
      vertex   -1.303761e+001 1.666219e+000 -2.000000e+000
    endloop
  endfacet
  facet normal -8.467242e-001 5.320321e-001 0.000000e+000
    outer loop
      vertex   -1.332725e+001 1.064765e+000 0.000000e+000
      vertex   -1.314855e+001 1.349174e+000 0.000000e+000
      vertex   -1.314855e+001 1.349174e+000 -2.000000e+000
    endloop
  endfacet
  facet normal -7.071068e-001 7.071068e-001 0.000000e+000
    outer loop
      vertex   -1.356477e+001 8.272528e-001 0.000000e+000
      vertex   -1.332725e+001 1.064765e+000 0.000000e+000
      vertex   -1.332725e+001 1.064765e+000 -2.000000e+000
    endloop
  endfacet
  facet normal -5.320321e-001 8.467242e-001 0.000000e+000
    outer loop
      vertex   -1.384917e+001 6.485467e-001 0.000000e+000
      vertex   -1.356477e+001 8.272528e-001 0.000000e+000
      vertex   -1.356477e+001 8.272528e-001 -2.000000e+000
    endloop
  endfacet
  facet normal -3.302791e-001 9.438833e-001 0.000000e+000
    outer loop
      vertex   -1.416622e+001 5.376081e-001 0.000000e+000
      vertex   -1.384917e+001 6.485467e-001 0.000000e+000
      vertex   -1.384917e+001 6.485467e-001 -2.000000e+000
    endloop
  endfacet
  facet normal -1.119645e-001 9.937122e-001 0.000000e+000
    outer loop
      vertex   -1.450000e+001 5.000000e-001 0.000000e+000
      vertex   -1.416622e+001 5.376081e-001 0.000000e+000
      vertex   -1.416622e+001 5.376081e-001 -2.000000e+000
    endloop
  endfacet
  facet normal 1.119645e-001 9.937122e-001 0.000000e+000
    outer loop
      vertex   -1.483378e+001 5.376081e-001 0.000000e+000
      vertex   -1.450000e+001 5.000000e-001 0.000000e+000
      vertex   -1.450000e+001 5.000000e-001 -2.000000e+000
    endloop
  endfacet
  facet normal 3.302791e-001 9.438833e-001 0.000000e+000
    outer loop
      vertex   -1.515083e+001 6.485467e-001 0.000000e+000
      vertex   -1.483378e+001 5.376081e-001 0.000000e+000
      vertex   -1.483378e+001 5.376081e-001 -2.000000e+000
    endloop
  endfacet
  facet normal 5.320321e-001 8.467242e-001 0.000000e+000
    outer loop
      vertex   -1.543523e+001 8.272528e-001 0.000000e+000
      vertex   -1.515083e+001 6.485467e-001 0.000000e+000
      vertex   -1.515083e+001 6.485467e-001 -2.000000e+000
    endloop
  endfacet
  facet normal 7.071068e-001 7.071068e-001 0.000000e+000
    outer loop
      vertex   -1.567275e+001 1.064765e+000 0.000000e+000
      vertex   -1.543523e+001 8.272528e-001 0.000000e+000
      vertex   -1.543523e+001 8.272528e-001 -2.000000e+000
    endloop
  endfacet
  facet normal 8.467242e-001 5.320321e-001 0.000000e+000
    outer loop
      vertex   -1.585145e+001 1.349174e+000 0.000000e+000
      vertex   -1.567275e+001 1.064765e+000 0.000000e+000
      vertex   -1.567275e+001 1.064765e+000 -2.000000e+000
    endloop
  endfacet
  facet normal 9.438833e-001 3.302791e-001 0.000000e+000
    outer loop
      vertex   -1.596239e+001 1.666219e+000 0.000000e+000
      vertex   -1.585145e+001 1.349174e+000 0.000000e+000
      vertex   -1.585145e+001 1.349174e+000 -2.000000e+000
    endloop
  endfacet
  facet normal 9.937122e-001 1.119645e-001 0.000000e+000
    outer loop
      vertex   -1.600000e+001 2.000000e+000 0.000000e+000
      vertex   -1.596239e+001 1.666219e+000 0.000000e+000
      vertex   -1.596239e+001 1.666219e+000 -2.000000e+000
    endloop
  endfacet
  facet normal 2.560054e-016 -7.316213e-016 -1.000000e+000
    outer loop
      vertex   1.150000e+001 7.000000e+000 -2.000000e+000
      vertex   8.166219e+000 3.462392e+000 -2.000000e+000
      vertex   7.849174e+000 3.351453e+000 -2.000000e+000
    endloop
  endfacet
  facet normal 6.181453e-017 -5.486192e-016 -1.000000e+000
    outer loop
      vertex   1.150000e+001 7.000000e+000 -2.000000e+000
      vertex   8.500000e+000 3.500000e+000 -2.000000e+000
      vertex   8.166219e+000 3.462392e+000 -2.000000e+000
    endloop
  endfacet
  facet normal -1.357786e-016 -3.880328e-016 -1.000000e+000
    outer loop
      vertex   1.150000e+001 7.000000e+000 -2.000000e+000
      vertex   9.150826e+000 3.351453e+000 -2.000000e+000
      vertex   8.833781e+000 3.462392e+000 -2.000000e+000
    endloop
  endfacet
  facet normal 0.000000e+000 0.000000e+000 -1.000000e+000
    outer loop
      vertex   -1.303761e+001 2.333781e+000 -2.000000e+000
      vertex   7.849174e+000 3.351453e+000 -2.000000e+000
      vertex   7.564765e+000 3.172747e+000 -2.000000e+000
    endloop
  endfacet
  facet normal -5.092638e-017 -4.519841e-016 -1.000000e+000
    outer loop
      vertex   8.833781e+000 3.462392e+000 -2.000000e+000
      vertex   8.500000e+000 3.500000e+000 -2.000000e+000
      vertex   1.150000e+001 7.000000e+000 -2.000000e+000
    endloop
  endfacet
  facet normal -2.755606e-032 3.071097e-016 -1.000000e+000
    outer loop
      vertex   1.150000e+001 -5.000000e+000 -2.000000e+000
      vertex   -1.750000e+001 -5.000000e+000 -2.000000e+000
      vertex   7.849174e+000 6.485467e-001 -2.000000e+000
    endloop
  endfacet
  facet normal 0.000000e+000 0.000000e+000 -1.000000e+000
    outer loop
      vertex   7.000000e+000 2.000000e+000 -2.000000e+000
      vertex   -1.332725e+001 1.064765e+000 -2.000000e+000
      vertex   -1.314855e+001 1.349174e+000 -2.000000e+000
    endloop
  endfacet
  facet normal 0.000000e+000 0.000000e+000 -1.000000e+000
    outer loop
      vertex   7.000000e+000 2.000000e+000 -2.000000e+000
      vertex   -1.416622e+001 5.376081e-001 -2.000000e+000
      vertex   -1.384917e+001 6.485467e-001 -2.000000e+000
    endloop
  endfacet
  facet normal 2.435306e-017 -4.998243e-016 -1.000000e+000
    outer loop
      vertex   7.849174e+000 3.351453e+000 -2.000000e+000
      vertex   -1.303761e+001 2.333781e+000 -2.000000e+000
      vertex   1.150000e+001 7.000000e+000 -2.000000e+000
    endloop
  endfacet
  facet normal -2.944192e-016 -2.944192e-016 -1.000000e+000
    outer loop
      vertex   1.150000e+001 7.000000e+000 -2.000000e+000
      vertex   9.672747e+000 2.935235e+000 -2.000000e+000
      vertex   9.435235e+000 3.172747e+000 -2.000000e+000
    endloop
  endfacet
  facet normal 3.786461e-017 3.360577e-016 -1.000000e+000
    outer loop
      vertex   1.150000e+001 -5.000000e+000 -2.000000e+000
      vertex   8.166219e+000 5.376081e-001 -2.000000e+000
      vertex   8.500000e+000 5.000000e-001 -2.000000e+000
    endloop
  endfacet
  facet normal 5.051790e-017 8.039879e-017 -1.000000e+000
    outer loop
      vertex   -1.750000e+001 -5.000000e+000 -2.000000e+000
      vertex   7.564765e+000 8.272528e-001 -2.000000e+000
      vertex   7.849174e+000 6.485467e-001 -2.000000e+000
    endloop
  endfacet
  facet normal 6.057419e-017 3.806129e-017 -1.000000e+000
    outer loop
      vertex   -1.750000e+001 -5.000000e+000 -2.000000e+000
      vertex   7.148547e+000 1.349174e+000 -2.000000e+000
      vertex   7.327253e+000 1.064765e+000 -2.000000e+000
    endloop
  endfacet
  facet normal 0.000000e+000 0.000000e+000 -1.000000e+000
    outer loop
      vertex   7.037608e+000 2.333781e+000 -2.000000e+000
      vertex   7.000000e+000 2.000000e+000 -2.000000e+000
      vertex   -1.300000e+001 2.000000e+000 -2.000000e+000
    endloop
  endfacet
  facet normal 0.000000e+000 0.000000e+000 -1.000000e+000
    outer loop
      vertex   7.000000e+000 2.000000e+000 -2.000000e+000
      vertex   -1.356477e+001 8.272528e-001 -2.000000e+000
      vertex   -1.332725e+001 1.064765e+000 -2.000000e+000
    endloop
  endfacet
  facet normal 0.000000e+000 0.000000e+000 -1.000000e+000
    outer loop
      vertex   7.000000e+000 2.000000e+000 -2.000000e+000
      vertex   -1.450000e+001 5.000000e-001 -2.000000e+000
      vertex   -1.416622e+001 5.376081e-001 -2.000000e+000
    endloop
  endfacet
  facet normal 0.000000e+000 0.000000e+000 -1.000000e+000
    outer loop
      vertex   -1.384917e+001 6.485467e-001 -2.000000e+000
      vertex   -1.356477e+001 8.272528e-001 -2.000000e+000
      vertex   7.000000e+000 2.000000e+000 -2.000000e+000
    endloop
  endfacet
  facet normal 0.000000e+000 0.000000e+000 -1.000000e+000
    outer loop
      vertex   -1.303761e+001 2.333781e+000 -2.000000e+000
      vertex   7.327253e+000 2.935235e+000 -2.000000e+000
      vertex   7.148547e+000 2.650826e+000 -2.000000e+000
    endloop
  endfacet
  facet normal -2.126981e-016 -3.385070e-016 -1.000000e+000
    outer loop
      vertex   9.435235e+000 3.172747e+000 -2.000000e+000
      vertex   9.150826e+000 3.351453e+000 -2.000000e+000
      vertex   1.150000e+001 7.000000e+000 -2.000000e+000
    endloop
  endfacet
  facet normal 1.388690e-016 3.968649e-016 -1.000000e+000
    outer loop
      vertex   7.849174e+000 6.485467e-001 -2.000000e+000
      vertex   8.166219e+000 5.376081e-001 -2.000000e+000
      vertex   1.150000e+001 -5.000000e+000 -2.000000e+000
    endloop
  endfacet
  facet normal 6.455934e-017 2.259029e-017 -1.000000e+000
    outer loop
      vertex   -1.750000e+001 -5.000000e+000 -2.000000e+000
      vertex   7.037608e+000 1.666219e+000 -2.000000e+000
      vertex   7.148547e+000 1.349174e+000 -2.000000e+000
    endloop
  endfacet
  facet normal 0.000000e+000 0.000000e+000 -1.000000e+000
    outer loop
      vertex   7.000000e+000 2.000000e+000 -2.000000e+000
      vertex   -1.303761e+001 1.666219e+000 -2.000000e+000
      vertex   -1.300000e+001 2.000000e+000 -2.000000e+000
    endloop
  endfacet
  facet normal 0.000000e+000 0.000000e+000 -1.000000e+000
    outer loop
      vertex   7.564765e+000 3.172747e+000 -2.000000e+000
      vertex   7.327253e+000 2.935235e+000 -2.000000e+000
      vertex   -1.303761e+001 2.333781e+000 -2.000000e+000
    endloop
  endfacet
  facet normal -5.471643e-016 -1.914611e-016 -1.000000e+000
    outer loop
      vertex   1.150000e+001 7.000000e+000 -2.000000e+000
      vertex   9.962392e+000 2.333781e+000 -2.000000e+000
      vertex   9.851453e+000 2.650826e+000 -2.000000e+000
    endloop
  endfacet
  facet normal -3.076843e-016 1.933309e-016 -1.000000e+000
    outer loop
      vertex   1.150000e+001 -5.000000e+000 -2.000000e+000
      vertex   9.672747e+000 1.064765e+000 -2.000000e+000
      vertex   9.851453e+000 1.349174e+000 -2.000000e+000
    endloop
  endfacet
  facet normal -9.381045e-017 2.680949e-016 -1.000000e+000
    outer loop
      vertex   1.150000e+001 -5.000000e+000 -2.000000e+000
      vertex   8.833781e+000 5.376081e-001 -2.000000e+000
      vertex   9.150826e+000 6.485467e-001 -2.000000e+000
    endloop
  endfacet
  facet normal 5.615442e-017 5.615442e-017 -1.000000e+000
    outer loop
      vertex   7.327253e+000 1.064765e+000 -2.000000e+000
      vertex   7.564765e+000 8.272528e-001 -2.000000e+000
      vertex   -1.750000e+001 -5.000000e+000 -2.000000e+000
    endloop
  endfacet
  facet normal -1.759828e-017 3.250033e-016 -1.000000e+000
    outer loop
      vertex   7.037608e+000 1.666219e+000 -2.000000e+000
      vertex   -1.750000e+001 -5.000000e+000 -2.000000e+000
      vertex   -1.450000e+001 5.000000e-001 -2.000000e+000
    endloop
  endfacet
  facet normal -6.004162e-017 -6.004162e-017 -1.000000e+000
    outer loop
      vertex   1.150000e+001 7.000000e+000 -2.000000e+000
      vertex   -1.332725e+001 2.935235e+000 -2.000000e+000
      vertex   -1.356477e+001 3.172747e+000 -2.000000e+000
    endloop
  endfacet
  facet normal -6.628574e-017 -2.319438e-017 -1.000000e+000
    outer loop
      vertex   1.150000e+001 7.000000e+000 -2.000000e+000
      vertex   -1.303761e+001 2.333781e+000 -2.000000e+000
      vertex   -1.314855e+001 2.650826e+000 -2.000000e+000
    endloop
  endfacet
  facet normal 0.000000e+000 0.000000e+000 -1.000000e+000
    outer loop
      vertex   -1.314855e+001 1.349174e+000 -2.000000e+000
      vertex   -1.303761e+001 1.666219e+000 -2.000000e+000
      vertex   7.000000e+000 2.000000e+000 -2.000000e+000
    endloop
  endfacet
  facet normal -3.959368e-016 -2.487836e-016 -1.000000e+000
    outer loop
      vertex   9.851453e+000 2.650826e+000 -2.000000e+000
      vertex   9.672747e+000 2.935235e+000 -2.000000e+000
      vertex   1.150000e+001 7.000000e+000 -2.000000e+000
    endloop
  endfacet
  facet normal -7.579479e-016 8.540022e-017 -1.000000e+000
    outer loop
      vertex   1.150000e+001 -5.000000e+000 -2.000000e+000
      vertex   9.962392e+000 1.666219e+000 -2.000000e+000
      vertex   1.000000e+001 2.000000e+000 -2.000000e+000
    endloop
  endfacet
  facet normal -2.198073e-016 2.198073e-016 -1.000000e+000
    outer loop
      vertex   1.150000e+001 -5.000000e+000 -2.000000e+000
      vertex   9.435235e+000 8.272528e-001 -2.000000e+000
      vertex   9.672747e+000 1.064765e+000 -2.000000e+000
    endloop
  endfacet
  facet normal -3.347992e-017 2.971425e-016 -1.000000e+000
    outer loop
      vertex   8.500000e+000 5.000000e-001 -2.000000e+000
      vertex   8.833781e+000 5.376081e-001 -2.000000e+000
      vertex   1.150000e+001 -5.000000e+000 -2.000000e+000
    endloop
  endfacet
  facet normal 3.347992e-017 2.971425e-016 -1.000000e+000
    outer loop
      vertex   -1.750000e+001 -5.000000e+000 -2.000000e+000
      vertex   -1.483378e+001 5.376081e-001 -2.000000e+000
      vertex   -1.450000e+001 5.000000e-001 -2.000000e+000
    endloop
  endfacet
  facet normal 1.529902e-016 2.434826e-016 -1.000000e+000
    outer loop
      vertex   -1.750000e+001 -5.000000e+000 -2.000000e+000
      vertex   -1.543523e+001 8.272528e-001 -2.000000e+000
      vertex   -1.515083e+001 6.485467e-001 -2.000000e+000
    endloop
  endfacet
  facet normal 5.092638e-017 -4.519841e-016 -1.000000e+000
    outer loop
      vertex   -1.750000e+001 7.000000e+000 -2.000000e+000
      vertex   -1.450000e+001 3.500000e+000 -2.000000e+000
      vertex   -1.483378e+001 3.462392e+000 -2.000000e+000
    endloop
  endfacet
  facet normal -2.560054e-016 -7.316213e-016 -1.000000e+000
    outer loop
      vertex   -1.750000e+001 7.000000e+000 -2.000000e+000
      vertex   -1.384917e+001 3.351453e+000 -2.000000e+000
      vertex   -1.416622e+001 3.462392e+000 -2.000000e+000
    endloop
  endfacet
  facet normal -6.335428e-017 -3.980813e-017 -1.000000e+000
    outer loop
      vertex   -1.314855e+001 2.650826e+000 -2.000000e+000
      vertex   -1.332725e+001 2.935235e+000 -2.000000e+000
      vertex   1.150000e+001 7.000000e+000 -2.000000e+000
    endloop
  endfacet
  facet normal 0.000000e+000 0.000000e+000 -1.000000e+000
    outer loop
      vertex   7.148547e+000 2.650826e+000 -2.000000e+000
      vertex   7.037608e+000 2.333781e+000 -2.000000e+000
      vertex   -1.303761e+001 2.333781e+000 -2.000000e+000
    endloop
  endfacet
  facet normal -1.156482e-015 3.343628e-031 -1.000000e+000
    outer loop
      vertex   1.000000e+001 2.000000e+000 -2.000000e+000
      vertex   1.150000e+001 7.000000e+000 -2.000000e+000
      vertex   1.150000e+001 -5.000000e+000 -2.000000e+000
    endloop
  endfacet
  facet normal -1.529902e-016 2.434826e-016 -1.000000e+000
    outer loop
      vertex   9.150826e+000 6.485467e-001 -2.000000e+000
      vertex   9.435235e+000 8.272528e-001 -2.000000e+000
      vertex   1.150000e+001 -5.000000e+000 -2.000000e+000
    endloop
  endfacet
  facet normal 9.381045e-017 2.680949e-016 -1.000000e+000
    outer loop
      vertex   -1.515083e+001 6.485467e-001 -2.000000e+000
      vertex   -1.483378e+001 5.376081e-001 -2.000000e+000
      vertex   -1.750000e+001 -5.000000e+000 -2.000000e+000
    endloop
  endfacet
  facet normal 4.482236e-016 1.568402e-016 -1.000000e+000
    outer loop
      vertex   -1.750000e+001 -5.000000e+000 -2.000000e+000
      vertex   -1.596239e+001 1.666219e+000 -2.000000e+000
      vertex   -1.585145e+001 1.349174e+000 -2.000000e+000
    endloop
  endfacet
  facet normal 1.156482e-015 0.000000e+000 -1.000000e+000
    outer loop
      vertex   -1.750000e+001 -5.000000e+000 -2.000000e+000
      vertex   -1.750000e+001 7.000000e+000 -2.000000e+000
      vertex   -1.600000e+001 2.000000e+000 -2.000000e+000
    endloop
  endfacet
  facet normal 2.126981e-016 -3.385070e-016 -1.000000e+000
    outer loop
      vertex   -1.750000e+001 7.000000e+000 -2.000000e+000
      vertex   -1.515083e+001 3.351453e+000 -2.000000e+000
      vertex   -1.543523e+001 3.172747e+000 -2.000000e+000
    endloop
  endfacet
  facet normal -6.181453e-017 -5.486192e-016 -1.000000e+000
    outer loop
      vertex   -1.416622e+001 3.462392e+000 -2.000000e+000
      vertex   -1.450000e+001 3.500000e+000 -2.000000e+000
      vertex   -1.750000e+001 7.000000e+000 -2.000000e+000
    endloop
  endfacet
  facet normal 0.000000e+000 0.000000e+000 -1.000000e+000
    outer loop
      vertex   -1.300000e+001 2.000000e+000 -2.000000e+000
      vertex   -1.303761e+001 2.333781e+000 -2.000000e+000
      vertex   7.037608e+000 2.333781e+000 -2.000000e+000
    endloop
  endfacet
  facet normal -4.482236e-016 1.568402e-016 -1.000000e+000
    outer loop
      vertex   9.851453e+000 1.349174e+000 -2.000000e+000
      vertex   9.962392e+000 1.666219e+000 -2.000000e+000
      vertex   1.150000e+001 -5.000000e+000 -2.000000e+000
    endloop
  endfacet
  facet normal 2.198073e-016 2.198073e-016 -1.000000e+000
    outer loop
      vertex   -1.750000e+001 -5.000000e+000 -2.000000e+000
      vertex   -1.567275e+001 1.064765e+000 -2.000000e+000
      vertex   -1.543523e+001 8.272528e-001 -2.000000e+000
    endloop
  endfacet
  facet normal 7.579479e-016 8.540022e-017 -1.000000e+000
    outer loop
      vertex   -1.600000e+001 2.000000e+000 -2.000000e+000
      vertex   -1.596239e+001 1.666219e+000 -2.000000e+000
      vertex   -1.750000e+001 -5.000000e+000 -2.000000e+000
    endloop
  endfacet
  facet normal 3.959368e-016 -2.487836e-016 -1.000000e+000
    outer loop
      vertex   -1.750000e+001 7.000000e+000 -2.000000e+000
      vertex   -1.567275e+001 2.935235e+000 -2.000000e+000
      vertex   -1.585145e+001 2.650826e+000 -2.000000e+000
    endloop
  endfacet
  facet normal 1.357786e-016 -3.880328e-016 -1.000000e+000
    outer loop
      vertex   -1.483378e+001 3.462392e+000 -2.000000e+000
      vertex   -1.515083e+001 3.351453e+000 -2.000000e+000
      vertex   -1.750000e+001 7.000000e+000 -2.000000e+000
    endloop
  endfacet
  facet normal -8.407256e-016 -9.472702e-017 -1.000000e+000
    outer loop
      vertex   1.000000e+001 2.000000e+000 -2.000000e+000
      vertex   9.962392e+000 2.333781e+000 -2.000000e+000
      vertex   1.150000e+001 7.000000e+000 -2.000000e+000
    endloop
  endfacet
  facet normal 3.076843e-016 1.933309e-016 -1.000000e+000
    outer loop
      vertex   -1.585145e+001 1.349174e+000 -2.000000e+000
      vertex   -1.567275e+001 1.064765e+000 -2.000000e+000
      vertex   -1.750000e+001 -5.000000e+000 -2.000000e+000
    endloop
  endfacet
  facet normal 5.471643e-016 -1.914611e-016 -1.000000e+000
    outer loop
      vertex   -1.585145e+001 2.650826e+000 -2.000000e+000
      vertex   -1.596239e+001 2.333781e+000 -2.000000e+000
      vertex   -1.750000e+001 7.000000e+000 -2.000000e+000
    endloop
  endfacet
  facet normal -8.046762e-016 -1.280635e-015 -1.000000e+000
    outer loop
      vertex   -1.750000e+001 7.000000e+000 -2.000000e+000
      vertex   -1.356477e+001 3.172747e+000 -2.000000e+000
      vertex   -1.384917e+001 3.351453e+000 -2.000000e+000
    endloop
  endfacet
  facet normal 0.000000e+000 0.000000e+000 -1.000000e+000
    outer loop
      vertex   -1.450000e+001 5.000000e-001 -2.000000e+000
      vertex   7.000000e+000 2.000000e+000 -2.000000e+000
      vertex   7.037608e+000 1.666219e+000 -2.000000e+000
    endloop
  endfacet
  facet normal 2.944192e-016 -2.944192e-016 -1.000000e+000
    outer loop
      vertex   -1.543523e+001 3.172747e+000 -2.000000e+000
      vertex   -1.567275e+001 2.935235e+000 -2.000000e+000
      vertex   -1.750000e+001 7.000000e+000 -2.000000e+000
    endloop
  endfacet
  facet normal 8.407256e-016 -9.472702e-017 -1.000000e+000
    outer loop
      vertex   -1.596239e+001 2.333781e+000 -2.000000e+000
      vertex   -1.600000e+001 2.000000e+000 -2.000000e+000
      vertex   -1.750000e+001 7.000000e+000 -2.000000e+000
    endloop
  endfacet
  facet normal 0.000000e+000 -4.532555e-016 -1.000000e+000
    outer loop
      vertex   -1.356477e+001 3.172747e+000 -2.000000e+000
      vertex   -1.750000e+001 7.000000e+000 -2.000000e+000
      vertex   1.150000e+001 7.000000e+000 -2.000000e+000
    endloop
  endfacet
  facet normal 8.972708e-017 -1.000000e+000 0.000000e+000
    outer loop
      vertex   1.150000e+001 -5.000000e+000 -2.000000e+000
      vertex   1.150000e+001 -5.000000e+000 0.000000e+000
      vertex   -1.750000e+001 -5.000000e+000 0.000000e+000
    endloop
  endfacet
  facet normal 8.972708e-017 -1.000000e+000 0.000000e+000
    outer loop
      vertex   -1.750000e+001 -5.000000e+000 0.000000e+000
      vertex   -1.750000e+001 -5.000000e+000 -2.000000e+000
      vertex   1.150000e+001 -5.000000e+000 -2.000000e+000
    endloop
  endfacet
  facet normal 9.937122e-001 1.119645e-001 0.000000e+000
    outer loop
      vertex   7.037608e+000 1.666219e+000 -2.000000e+000
      vertex   7.000000e+000 2.000000e+000 -2.000000e+000
      vertex   7.000000e+000 2.000000e+000 0.000000e+000
    endloop
  endfacet
  facet normal 9.438833e-001 3.302791e-001 0.000000e+000
    outer loop
      vertex   7.148547e+000 1.349174e+000 -2.000000e+000
      vertex   7.037608e+000 1.666219e+000 -2.000000e+000
      vertex   7.037608e+000 1.666219e+000 0.000000e+000
    endloop
  endfacet
  facet normal 8.467242e-001 5.320321e-001 0.000000e+000
    outer loop
      vertex   7.327253e+000 1.064765e+000 -2.000000e+000
      vertex   7.148547e+000 1.349174e+000 -2.000000e+000
      vertex   7.148547e+000 1.349174e+000 0.000000e+000
    endloop
  endfacet
  facet normal 7.071068e-001 7.071068e-001 0.000000e+000
    outer loop
      vertex   7.564765e+000 8.272528e-001 -2.000000e+000
      vertex   7.327253e+000 1.064765e+000 -2.000000e+000
      vertex   7.327253e+000 1.064765e+000 0.000000e+000
    endloop
  endfacet
  facet normal 5.320321e-001 8.467242e-001 0.000000e+000
    outer loop
      vertex   7.849174e+000 6.485467e-001 -2.000000e+000
      vertex   7.564765e+000 8.272528e-001 -2.000000e+000
      vertex   7.564765e+000 8.272528e-001 0.000000e+000
    endloop
  endfacet
  facet normal 3.302791e-001 9.438833e-001 0.000000e+000
    outer loop
      vertex   8.166219e+000 5.376081e-001 -2.000000e+000
      vertex   7.849174e+000 6.485467e-001 -2.000000e+000
      vertex   7.849174e+000 6.485467e-001 0.000000e+000
    endloop
  endfacet
  facet normal 1.119645e-001 9.937122e-001 0.000000e+000
    outer loop
      vertex   8.500000e+000 5.000000e-001 -2.000000e+000
      vertex   8.166219e+000 5.376081e-001 -2.000000e+000
      vertex   8.166219e+000 5.376081e-001 0.000000e+000
    endloop
  endfacet
  facet normal -1.119645e-001 9.937122e-001 0.000000e+000
    outer loop
      vertex   8.833781e+000 5.376081e-001 -2.000000e+000
      vertex   8.500000e+000 5.000000e-001 -2.000000e+000
      vertex   8.500000e+000 5.000000e-001 0.000000e+000
    endloop
  endfacet
  facet normal -3.302791e-001 9.438833e-001 0.000000e+000
    outer loop
      vertex   9.150826e+000 6.485467e-001 -2.000000e+000
      vertex   8.833781e+000 5.376081e-001 -2.000000e+000
      vertex   8.833781e+000 5.376081e-001 0.000000e+000
    endloop
  endfacet
  facet normal -5.320321e-001 8.467242e-001 0.000000e+000
    outer loop
      vertex   9.435235e+000 8.272528e-001 -2.000000e+000
      vertex   9.150826e+000 6.485467e-001 -2.000000e+000
      vertex   9.150826e+000 6.485467e-001 0.000000e+000
    endloop
  endfacet
  facet normal -7.071068e-001 7.071068e-001 0.000000e+000
    outer loop
      vertex   9.672747e+000 1.064765e+000 -2.000000e+000
      vertex   9.435235e+000 8.272528e-001 -2.000000e+000
      vertex   9.435235e+000 8.272528e-001 0.000000e+000
    endloop
  endfacet
  facet normal -8.467242e-001 5.320321e-001 0.000000e+000
    outer loop
      vertex   9.851453e+000 1.349174e+000 -2.000000e+000
      vertex   9.672747e+000 1.064765e+000 -2.000000e+000
      vertex   9.672747e+000 1.064765e+000 0.000000e+000
    endloop
  endfacet
  facet normal -9.438833e-001 3.302791e-001 0.000000e+000
    outer loop
      vertex   9.962392e+000 1.666219e+000 -2.000000e+000
      vertex   9.851453e+000 1.349174e+000 -2.000000e+000
      vertex   9.851453e+000 1.349174e+000 0.000000e+000
    endloop
  endfacet
  facet normal -9.937122e-001 1.119645e-001 0.000000e+000
    outer loop
      vertex   1.000000e+001 2.000000e+000 -2.000000e+000
      vertex   9.962392e+000 1.666219e+000 -2.000000e+000
      vertex   9.962392e+000 1.666219e+000 0.000000e+000
    endloop
  endfacet
  facet normal -9.937122e-001 -1.119645e-001 -2.462628e-017
    outer loop
      vertex   9.962392e+000 2.333781e+000 -2.000000e+000
      vertex   1.000000e+001 2.000000e+000 -2.000000e+000
      vertex   1.000000e+001 2.000000e+000 0.000000e+000
    endloop
  endfacet
  facet normal -9.438833e-001 -3.302791e-001 0.000000e+000
    outer loop
      vertex   9.851453e+000 2.650826e+000 -2.000000e+000
      vertex   9.962392e+000 2.333781e+000 -2.000000e+000
      vertex   9.962392e+000 2.333781e+000 0.000000e+000
    endloop
  endfacet
  facet normal -8.467242e-001 -5.320321e-001 0.000000e+000
    outer loop
      vertex   9.672747e+000 2.935235e+000 -2.000000e+000
      vertex   9.851453e+000 2.650826e+000 -2.000000e+000
      vertex   9.851453e+000 2.650826e+000 0.000000e+000
    endloop
  endfacet
  facet normal -7.071068e-001 -7.071068e-001 0.000000e+000
    outer loop
      vertex   9.435235e+000 3.172747e+000 -2.000000e+000
      vertex   9.672747e+000 2.935235e+000 -2.000000e+000
      vertex   9.672747e+000 2.935235e+000 0.000000e+000
    endloop
  endfacet
  facet normal -5.320321e-001 -8.467242e-001 0.000000e+000
    outer loop
      vertex   9.150826e+000 3.351453e+000 -2.000000e+000
      vertex   9.435235e+000 3.172747e+000 -2.000000e+000
      vertex   9.435235e+000 3.172747e+000 0.000000e+000
    endloop
  endfacet
  facet normal -3.302791e-001 -9.438833e-001 0.000000e+000
    outer loop
      vertex   8.833781e+000 3.462392e+000 -2.000000e+000
      vertex   9.150826e+000 3.351453e+000 -2.000000e+000
      vertex   9.150826e+000 3.351453e+000 0.000000e+000
    endloop
  endfacet
  facet normal -1.119645e-001 -9.937122e-001 0.000000e+000
    outer loop
      vertex   8.500000e+000 3.500000e+000 -2.000000e+000
      vertex   8.833781e+000 3.462392e+000 -2.000000e+000
      vertex   8.833781e+000 3.462392e+000 0.000000e+000
    endloop
  endfacet
  facet normal 1.119645e-001 -9.937122e-001 0.000000e+000
    outer loop
      vertex   8.166219e+000 3.462392e+000 -2.000000e+000
      vertex   8.500000e+000 3.500000e+000 -2.000000e+000
      vertex   8.500000e+000 3.500000e+000 0.000000e+000
    endloop
  endfacet
  facet normal 3.302791e-001 -9.438833e-001 0.000000e+000
    outer loop
      vertex   7.849174e+000 3.351453e+000 -2.000000e+000
      vertex   8.166219e+000 3.462392e+000 -2.000000e+000
      vertex   8.166219e+000 3.462392e+000 0.000000e+000
    endloop
  endfacet
  facet normal 5.320321e-001 -8.467242e-001 0.000000e+000
    outer loop
      vertex   7.564765e+000 3.172747e+000 -2.000000e+000
      vertex   7.849174e+000 3.351453e+000 -2.000000e+000
      vertex   7.849174e+000 3.351453e+000 0.000000e+000
    endloop
  endfacet
  facet normal 7.071068e-001 -7.071068e-001 0.000000e+000
    outer loop
      vertex   7.327253e+000 2.935235e+000 -2.000000e+000
      vertex   7.564765e+000 3.172747e+000 -2.000000e+000
      vertex   7.564765e+000 3.172747e+000 0.000000e+000
    endloop
  endfacet
  facet normal 8.467242e-001 -5.320321e-001 0.000000e+000
    outer loop
      vertex   7.148547e+000 2.650826e+000 -2.000000e+000
      vertex   7.327253e+000 2.935235e+000 -2.000000e+000
      vertex   7.327253e+000 2.935235e+000 0.000000e+000
    endloop
  endfacet
  facet normal 9.438833e-001 -3.302791e-001 0.000000e+000
    outer loop
      vertex   7.037608e+000 2.333781e+000 -2.000000e+000
      vertex   7.148547e+000 2.650826e+000 -2.000000e+000
      vertex   7.148547e+000 2.650826e+000 0.000000e+000
    endloop
  endfacet
  facet normal 9.937122e-001 -1.119645e-001 0.000000e+000
    outer loop
      vertex   7.000000e+000 2.000000e+000 -2.000000e+000
      vertex   7.037608e+000 2.333781e+000 -2.000000e+000
      vertex   7.037608e+000 2.333781e+000 0.000000e+000
    endloop
  endfacet
  facet normal 9.937122e-001 -1.119645e-001 0.000000e+000
    outer loop
      vertex   7.037608e+000 2.333781e+000 0.000000e+000
      vertex   7.000000e+000 2.000000e+000 0.000000e+000
      vertex   7.000000e+000 2.000000e+000 -2.000000e+000
    endloop
  endfacet
  facet normal 9.438833e-001 -3.302791e-001 0.000000e+000
    outer loop
      vertex   7.148547e+000 2.650826e+000 0.000000e+000
      vertex   7.037608e+000 2.333781e+000 0.000000e+000
      vertex   7.037608e+000 2.333781e+000 -2.000000e+000
    endloop
  endfacet
  facet normal 8.467242e-001 -5.320321e-001 0.000000e+000
    outer loop
      vertex   7.327253e+000 2.935235e+000 0.000000e+000
      vertex   7.148547e+000 2.650826e+000 0.000000e+000
      vertex   7.148547e+000 2.650826e+000 -2.000000e+000
    endloop
  endfacet
  facet normal 7.071068e-001 -7.071068e-001 0.000000e+000
    outer loop
      vertex   7.564765e+000 3.172747e+000 0.000000e+000
      vertex   7.327253e+000 2.935235e+000 0.000000e+000
      vertex   7.327253e+000 2.935235e+000 -2.000000e+000
    endloop
  endfacet
  facet normal 5.320321e-001 -8.467242e-001 0.000000e+000
    outer loop
      vertex   7.849174e+000 3.351453e+000 0.000000e+000
      vertex   7.564765e+000 3.172747e+000 0.000000e+000
      vertex   7.564765e+000 3.172747e+000 -2.000000e+000
    endloop
  endfacet
  facet normal 3.302791e-001 -9.438833e-001 0.000000e+000
    outer loop
      vertex   8.166219e+000 3.462392e+000 0.000000e+000
      vertex   7.849174e+000 3.351453e+000 0.000000e+000
      vertex   7.849174e+000 3.351453e+000 -2.000000e+000
    endloop
  endfacet
  facet normal 1.119645e-001 -9.937122e-001 0.000000e+000
    outer loop
      vertex   8.500000e+000 3.500000e+000 0.000000e+000
      vertex   8.166219e+000 3.462392e+000 0.000000e+000
      vertex   8.166219e+000 3.462392e+000 -2.000000e+000
    endloop
  endfacet
  facet normal -1.119645e-001 -9.937122e-001 0.000000e+000
    outer loop
      vertex   8.833781e+000 3.462392e+000 0.000000e+000
      vertex   8.500000e+000 3.500000e+000 0.000000e+000
      vertex   8.500000e+000 3.500000e+000 -2.000000e+000
    endloop
  endfacet
  facet normal -3.302791e-001 -9.438833e-001 0.000000e+000
    outer loop
      vertex   9.150826e+000 3.351453e+000 0.000000e+000
      vertex   8.833781e+000 3.462392e+000 0.000000e+000
      vertex   8.833781e+000 3.462392e+000 -2.000000e+000
    endloop
  endfacet
  facet normal -5.320321e-001 -8.467242e-001 0.000000e+000
    outer loop
      vertex   9.435235e+000 3.172747e+000 0.000000e+000
      vertex   9.150826e+000 3.351453e+000 0.000000e+000
      vertex   9.150826e+000 3.351453e+000 -2.000000e+000
    endloop
  endfacet
  facet normal -7.071068e-001 -7.071068e-001 0.000000e+000
    outer loop
      vertex   9.672747e+000 2.935235e+000 0.000000e+000
      vertex   9.435235e+000 3.172747e+000 0.000000e+000
      vertex   9.435235e+000 3.172747e+000 -2.000000e+000
    endloop
  endfacet
  facet normal -8.467242e-001 -5.320321e-001 0.000000e+000
    outer loop
      vertex   9.851453e+000 2.650826e+000 0.000000e+000
      vertex   9.672747e+000 2.935235e+000 0.000000e+000
      vertex   9.672747e+000 2.935235e+000 -2.000000e+000
    endloop
  endfacet
  facet normal -9.438833e-001 -3.302791e-001 0.000000e+000
    outer loop
      vertex   9.962392e+000 2.333781e+000 0.000000e+000
      vertex   9.851453e+000 2.650826e+000 0.000000e+000
      vertex   9.851453e+000 2.650826e+000 -2.000000e+000
    endloop
  endfacet
  facet normal -9.937122e-001 -1.119645e-001 0.000000e+000
    outer loop
      vertex   1.000000e+001 2.000000e+000 0.000000e+000
      vertex   9.962392e+000 2.333781e+000 0.000000e+000
      vertex   9.962392e+000 2.333781e+000 -2.000000e+000
    endloop
  endfacet
  facet normal -9.937122e-001 1.119645e-001 2.462628e-017
    outer loop
      vertex   9.962392e+000 1.666219e+000 0.000000e+000
      vertex   1.000000e+001 2.000000e+000 0.000000e+000
      vertex   1.000000e+001 2.000000e+000 -2.000000e+000
    endloop
  endfacet
  facet normal -9.438833e-001 3.302791e-001 0.000000e+000
    outer loop
      vertex   9.851453e+000 1.349174e+000 0.000000e+000
      vertex   9.962392e+000 1.666219e+000 0.000000e+000
      vertex   9.962392e+000 1.666219e+000 -2.000000e+000
    endloop
  endfacet
  facet normal -8.467242e-001 5.320321e-001 0.000000e+000
    outer loop
      vertex   9.672747e+000 1.064765e+000 0.000000e+000
      vertex   9.851453e+000 1.349174e+000 0.000000e+000
      vertex   9.851453e+000 1.349174e+000 -2.000000e+000
    endloop
  endfacet
  facet normal -7.071068e-001 7.071068e-001 0.000000e+000
    outer loop
      vertex   9.435235e+000 8.272528e-001 0.000000e+000
      vertex   9.672747e+000 1.064765e+000 0.000000e+000
      vertex   9.672747e+000 1.064765e+000 -2.000000e+000
    endloop
  endfacet
  facet normal -5.320321e-001 8.467242e-001 0.000000e+000
    outer loop
      vertex   9.150826e+000 6.485467e-001 0.000000e+000
      vertex   9.435235e+000 8.272528e-001 0.000000e+000
      vertex   9.435235e+000 8.272528e-001 -2.000000e+000
    endloop
  endfacet
  facet normal -3.302791e-001 9.438833e-001 0.000000e+000
    outer loop
      vertex   8.833781e+000 5.376081e-001 0.000000e+000
      vertex   9.150826e+000 6.485467e-001 0.000000e+000
      vertex   9.150826e+000 6.485467e-001 -2.000000e+000
    endloop
  endfacet
  facet normal -1.119645e-001 9.937122e-001 0.000000e+000
    outer loop
      vertex   8.500000e+000 5.000000e-001 0.000000e+000
      vertex   8.833781e+000 5.376081e-001 0.000000e+000
      vertex   8.833781e+000 5.376081e-001 -2.000000e+000
    endloop
  endfacet
  facet normal 1.119645e-001 9.937122e-001 0.000000e+000
    outer loop
      vertex   8.166219e+000 5.376081e-001 0.000000e+000
      vertex   8.500000e+000 5.000000e-001 0.000000e+000
      vertex   8.500000e+000 5.000000e-001 -2.000000e+000
    endloop
  endfacet
  facet normal 3.302791e-001 9.438833e-001 0.000000e+000
    outer loop
      vertex   7.849174e+000 6.485467e-001 0.000000e+000
      vertex   8.166219e+000 5.376081e-001 0.000000e+000
      vertex   8.166219e+000 5.376081e-001 -2.000000e+000
    endloop
  endfacet
  facet normal 5.320321e-001 8.467242e-001 0.000000e+000
    outer loop
      vertex   7.564765e+000 8.272528e-001 0.000000e+000
      vertex   7.849174e+000 6.485467e-001 0.000000e+000
      vertex   7.849174e+000 6.485467e-001 -2.000000e+000
    endloop
  endfacet
  facet normal 7.071068e-001 7.071068e-001 0.000000e+000
    outer loop
      vertex   7.327253e+000 1.064765e+000 0.000000e+000
      vertex   7.564765e+000 8.272528e-001 0.000000e+000
      vertex   7.564765e+000 8.272528e-001 -2.000000e+000
    endloop
  endfacet
  facet normal 8.467242e-001 5.320321e-001 0.000000e+000
    outer loop
      vertex   7.148547e+000 1.349174e+000 0.000000e+000
      vertex   7.327253e+000 1.064765e+000 0.000000e+000
      vertex   7.327253e+000 1.064765e+000 -2.000000e+000
    endloop
  endfacet
  facet normal 9.438833e-001 3.302791e-001 0.000000e+000
    outer loop
      vertex   7.037608e+000 1.666219e+000 0.000000e+000
      vertex   7.148547e+000 1.349174e+000 0.000000e+000
      vertex   7.148547e+000 1.349174e+000 -2.000000e+000
    endloop
  endfacet
  facet normal 9.937122e-001 1.119645e-001 0.000000e+000
    outer loop
      vertex   7.000000e+000 2.000000e+000 0.000000e+000
      vertex   7.037608e+000 1.666219e+000 0.000000e+000
      vertex   7.037608e+000 1.666219e+000 -2.000000e+000
    endloop
  endfacet
  facet normal 0.000000e+000 0.000000e+000 1.000000e+000
    outer loop
      vertex   -1.303761e+001 2.333781e+000 0.000000e+000
      vertex   7.849174e+000 3.351453e+000 0.000000e+000
      vertex   8.166219e+000 3.462392e+000 0.000000e+000
    endloop
  endfacet
  facet normal 0.000000e+000 0.000000e+000 1.000000e+000
    outer loop
      vertex   1.150000e+001 5.000000e+000 0.000000e+000
      vertex   8.500000e+000 3.500000e+000 0.000000e+000
      vertex   8.833781e+000 3.462392e+000 0.000000e+000
    endloop
  endfacet
  facet normal 0.000000e+000 -0.000000e+000 1.000000e+000
    outer loop
      vertex   8.166219e+000 3.462392e+000 0.000000e+000
      vertex   1.150000e+001 5.000000e+000 0.000000e+000
      vertex   -1.303761e+001 2.333781e+000 0.000000e+000
    endloop
  endfacet
  facet normal 0.000000e+000 0.000000e+000 1.000000e+000
    outer loop
      vertex   1.150000e+001 5.000000e+000 0.000000e+000
      vertex   9.150826e+000 3.351453e+000 0.000000e+000
      vertex   9.435235e+000 3.172747e+000 0.000000e+000
    endloop
  endfacet
  facet normal 0.000000e+000 0.000000e+000 1.000000e+000
    outer loop
      vertex   8.166219e+000 3.462392e+000 0.000000e+000
      vertex   8.500000e+000 3.500000e+000 0.000000e+000
      vertex   1.150000e+001 5.000000e+000 0.000000e+000
    endloop
  endfacet
  facet normal 0.000000e+000 0.000000e+000 1.000000e+000
    outer loop
      vertex   -1.750000e+001 5.000000e+000 0.000000e+000
      vertex   -1.450000e+001 3.500000e+000 0.000000e+000
      vertex   -1.416622e+001 3.462392e+000 0.000000e+000
    endloop
  endfacet
  facet normal 0.000000e+000 0.000000e+000 1.000000e+000
    outer loop
      vertex   -1.750000e+001 -5.000000e+000 0.000000e+000
      vertex   -1.483378e+001 5.376081e-001 0.000000e+000
      vertex   -1.515083e+001 6.485467e-001 0.000000e+000
    endloop
  endfacet
  facet normal 0.000000e+000 0.000000e+000 1.000000e+000
    outer loop
      vertex   -1.750000e+001 -5.000000e+000 0.000000e+000
      vertex   -1.416622e+001 5.376081e-001 0.000000e+000
      vertex   -1.450000e+001 5.000000e-001 0.000000e+000
    endloop
  endfacet
  facet normal 0.000000e+000 0.000000e+000 1.000000e+000
    outer loop
      vertex   7.037608e+000 1.666219e+000 0.000000e+000
      vertex   -1.356477e+001 8.272528e-001 0.000000e+000
      vertex   -1.384917e+001 6.485467e-001 0.000000e+000
    endloop
  endfacet
  facet normal 0.000000e+000 0.000000e+000 1.000000e+000
    outer loop
      vertex   -1.750000e+001 -5.000000e+000 0.000000e+000
      vertex   7.327253e+000 1.064765e+000 0.000000e+000
      vertex   7.148547e+000 1.349174e+000 0.000000e+000
    endloop
  endfacet
  facet normal 0.000000e+000 0.000000e+000 1.000000e+000
    outer loop
      vertex   1.150000e+001 -5.000000e+000 0.000000e+000
      vertex   8.166219e+000 5.376081e-001 0.000000e+000
      vertex   7.849174e+000 6.485467e-001 0.000000e+000
    endloop
  endfacet
  facet normal -0.000000e+000 0.000000e+000 1.000000e+000
    outer loop
      vertex   8.833781e+000 3.462392e+000 0.000000e+000
      vertex   9.150826e+000 3.351453e+000 0.000000e+000
      vertex   1.150000e+001 5.000000e+000 0.000000e+000
    endloop
  endfacet
  facet normal 0.000000e+000 0.000000e+000 1.000000e+000
    outer loop
      vertex   -1.303761e+001 2.333781e+000 0.000000e+000
      vertex   7.327253e+000 2.935235e+000 0.000000e+000
      vertex   7.564765e+000 3.172747e+000 0.000000e+000
    endloop
  endfacet
  facet normal 0.000000e+000 -0.000000e+000 1.000000e+000
    outer loop
      vertex   -1.416622e+001 3.462392e+000 0.000000e+000
      vertex   1.150000e+001 5.000000e+000 0.000000e+000
      vertex   -1.750000e+001 5.000000e+000 0.000000e+000
    endloop
  endfacet
  facet normal 0.000000e+000 0.000000e+000 1.000000e+000
    outer loop
      vertex   -1.750000e+001 5.000000e+000 0.000000e+000
      vertex   -1.515083e+001 3.351453e+000 0.000000e+000
      vertex   -1.483378e+001 3.462392e+000 0.000000e+000
    endloop
  endfacet
  facet normal 0.000000e+000 0.000000e+000 1.000000e+000
    outer loop
      vertex   -1.450000e+001 5.000000e-001 0.000000e+000
      vertex   -1.483378e+001 5.376081e-001 0.000000e+000
      vertex   -1.750000e+001 -5.000000e+000 0.000000e+000
    endloop
  endfacet
  facet normal -0.000000e+000 0.000000e+000 1.000000e+000
    outer loop
      vertex   -1.384917e+001 6.485467e-001 0.000000e+000
      vertex   -1.750000e+001 -5.000000e+000 0.000000e+000
      vertex   7.037608e+000 1.666219e+000 0.000000e+000
    endloop
  endfacet
  facet normal 0.000000e+000 0.000000e+000 1.000000e+000
    outer loop
      vertex   -1.750000e+001 -5.000000e+000 0.000000e+000
      vertex   7.564765e+000 8.272528e-001 0.000000e+000
      vertex   7.327253e+000 1.064765e+000 0.000000e+000
    endloop
  endfacet
  facet normal 0.000000e+000 0.000000e+000 1.000000e+000
    outer loop
      vertex   7.849174e+000 6.485467e-001 0.000000e+000
      vertex   -1.750000e+001 -5.000000e+000 0.000000e+000
      vertex   1.150000e+001 -5.000000e+000 0.000000e+000
    endloop
  endfacet
  facet normal 0.000000e+000 0.000000e+000 1.000000e+000
    outer loop
      vertex   1.150000e+001 5.000000e+000 0.000000e+000
      vertex   9.672747e+000 2.935235e+000 0.000000e+000
      vertex   9.851453e+000 2.650826e+000 0.000000e+000
    endloop
  endfacet
  facet normal 0.000000e+000 -0.000000e+000 1.000000e+000
    outer loop
      vertex   7.564765e+000 3.172747e+000 0.000000e+000
      vertex   7.849174e+000 3.351453e+000 0.000000e+000
      vertex   -1.303761e+001 2.333781e+000 0.000000e+000
    endloop
  endfacet
  facet normal 0.000000e+000 0.000000e+000 1.000000e+000
    outer loop
      vertex   1.150000e+001 5.000000e+000 0.000000e+000
      vertex   -1.384917e+001 3.351453e+000 0.000000e+000
      vertex   -1.356477e+001 3.172747e+000 0.000000e+000
    endloop
  endfacet
  facet normal 0.000000e+000 -0.000000e+000 1.000000e+000
    outer loop
      vertex   -1.483378e+001 3.462392e+000 0.000000e+000
      vertex   -1.450000e+001 3.500000e+000 0.000000e+000
      vertex   -1.750000e+001 5.000000e+000 0.000000e+000
    endloop
  endfacet
  facet normal 0.000000e+000 0.000000e+000 1.000000e+000
    outer loop
      vertex   -1.384917e+001 6.485467e-001 0.000000e+000
      vertex   -1.416622e+001 5.376081e-001 0.000000e+000
      vertex   -1.750000e+001 -5.000000e+000 0.000000e+000
    endloop
  endfacet
  facet normal 0.000000e+000 0.000000e+000 1.000000e+000
    outer loop
      vertex   7.037608e+000 1.666219e+000 0.000000e+000
      vertex   -1.303761e+001 1.666219e+000 0.000000e+000
      vertex   -1.314855e+001 1.349174e+000 0.000000e+000
    endloop
  endfacet
  facet normal 0.000000e+000 0.000000e+000 1.000000e+000
    outer loop
      vertex   7.849174e+000 6.485467e-001 0.000000e+000
      vertex   7.564765e+000 8.272528e-001 0.000000e+000
      vertex   -1.750000e+001 -5.000000e+000 0.000000e+000
    endloop
  endfacet
  facet normal 0.000000e+000 0.000000e+000 1.000000e+000
    outer loop
      vertex   1.150000e+001 -5.000000e+000 0.000000e+000
      vertex   8.833781e+000 5.376081e-001 0.000000e+000
      vertex   8.500000e+000 5.000000e-001 0.000000e+000
    endloop
  endfacet
  facet normal -0.000000e+000 0.000000e+000 1.000000e+000
    outer loop
      vertex   9.435235e+000 3.172747e+000 0.000000e+000
      vertex   9.672747e+000 2.935235e+000 0.000000e+000
      vertex   1.150000e+001 5.000000e+000 0.000000e+000
    endloop
  endfacet
  facet normal 0.000000e+000 0.000000e+000 1.000000e+000
    outer loop
      vertex   -1.303761e+001 2.333781e+000 0.000000e+000
      vertex   7.037608e+000 2.333781e+000 0.000000e+000
      vertex   7.148547e+000 2.650826e+000 0.000000e+000
    endloop
  endfacet
  facet normal -0.000000e+000 0.000000e+000 1.000000e+000
    outer loop
      vertex   -1.416622e+001 3.462392e+000 0.000000e+000
      vertex   -1.384917e+001 3.351453e+000 0.000000e+000
      vertex   1.150000e+001 5.000000e+000 0.000000e+000
    endloop
  endfacet
  facet normal 0.000000e+000 0.000000e+000 1.000000e+000
    outer loop
      vertex   -1.750000e+001 5.000000e+000 0.000000e+000
      vertex   -1.567275e+001 2.935235e+000 0.000000e+000
      vertex   -1.543523e+001 3.172747e+000 0.000000e+000
    endloop
  endfacet
  facet normal 0.000000e+000 0.000000e+000 1.000000e+000
    outer loop
      vertex   -1.750000e+001 5.000000e+000 0.000000e+000
      vertex   -1.750000e+001 -5.000000e+000 0.000000e+000
      vertex   -1.596239e+001 1.666219e+000 0.000000e+000
    endloop
  endfacet
  facet normal 0.000000e+000 0.000000e+000 1.000000e+000
    outer loop
      vertex   -1.750000e+001 -5.000000e+000 0.000000e+000
      vertex   -1.567275e+001 1.064765e+000 0.000000e+000
      vertex   -1.585145e+001 1.349174e+000 0.000000e+000
    endloop
  endfacet
  facet normal 0.000000e+000 0.000000e+000 1.000000e+000
    outer loop
      vertex   -1.515083e+001 6.485467e-001 0.000000e+000
      vertex   -1.543523e+001 8.272528e-001 0.000000e+000
      vertex   -1.750000e+001 -5.000000e+000 0.000000e+000
    endloop
  endfacet
  facet normal -0.000000e+000 0.000000e+000 1.000000e+000
    outer loop
      vertex   -1.314855e+001 1.349174e+000 0.000000e+000
      vertex   -1.332725e+001 1.064765e+000 0.000000e+000
      vertex   7.037608e+000 1.666219e+000 0.000000e+000
    endloop
  endfacet
  facet normal 0.000000e+000 0.000000e+000 1.000000e+000
    outer loop
      vertex   8.500000e+000 5.000000e-001 0.000000e+000
      vertex   8.166219e+000 5.376081e-001 0.000000e+000
      vertex   1.150000e+001 -5.000000e+000 0.000000e+000
    endloop
  endfacet
  facet normal 0.000000e+000 0.000000e+000 1.000000e+000
    outer loop
      vertex   1.150000e+001 -5.000000e+000 0.000000e+000
      vertex   9.435235e+000 8.272528e-001 0.000000e+000
      vertex   9.150826e+000 6.485467e-001 0.000000e+000
    endloop
  endfacet
  facet normal 0.000000e+000 0.000000e+000 1.000000e+000
    outer loop
      vertex   1.150000e+001 -5.000000e+000 0.000000e+000
      vertex   9.962392e+000 1.666219e+000 0.000000e+000
      vertex   9.851453e+000 1.349174e+000 0.000000e+000
    endloop
  endfacet
  facet normal 0.000000e+000 -0.000000e+000 1.000000e+000
    outer loop
      vertex   7.148547e+000 2.650826e+000 0.000000e+000
      vertex   7.327253e+000 2.935235e+000 0.000000e+000
      vertex   -1.303761e+001 2.333781e+000 0.000000e+000
    endloop
  endfacet
  facet normal 0.000000e+000 0.000000e+000 1.000000e+000
    outer loop
      vertex   -1.303761e+001 2.333781e+000 0.000000e+000
      vertex   -1.300000e+001 2.000000e+000 0.000000e+000
      vertex   7.000000e+000 2.000000e+000 0.000000e+000
    endloop
  endfacet
  facet normal 0.000000e+000 0.000000e+000 1.000000e+000
    outer loop
      vertex   1.150000e+001 5.000000e+000 0.000000e+000
      vertex   -1.332725e+001 2.935235e+000 0.000000e+000
      vertex   -1.314855e+001 2.650826e+000 0.000000e+000
    endloop
  endfacet
  facet normal 0.000000e+000 -0.000000e+000 1.000000e+000
    outer loop
      vertex   -1.543523e+001 3.172747e+000 0.000000e+000
      vertex   -1.515083e+001 3.351453e+000 0.000000e+000
      vertex   -1.750000e+001 5.000000e+000 0.000000e+000
    endloop
  endfacet
  facet normal 0.000000e+000 0.000000e+000 1.000000e+000
    outer loop
      vertex   -1.750000e+001 5.000000e+000 0.000000e+000
      vertex   -1.596239e+001 2.333781e+000 0.000000e+000
      vertex   -1.585145e+001 2.650826e+000 0.000000e+000
    endloop
  endfacet
  facet normal 0.000000e+000 0.000000e+000 1.000000e+000
    outer loop
      vertex   -1.585145e+001 1.349174e+000 0.000000e+000
      vertex   -1.596239e+001 1.666219e+000 0.000000e+000
      vertex   -1.750000e+001 -5.000000e+000 0.000000e+000
    endloop
  endfacet
  facet normal -0.000000e+000 0.000000e+000 1.000000e+000
    outer loop
      vertex   -1.332725e+001 1.064765e+000 0.000000e+000
      vertex   -1.356477e+001 8.272528e-001 0.000000e+000
      vertex   7.037608e+000 1.666219e+000 0.000000e+000
    endloop
  endfacet
  facet normal 0.000000e+000 0.000000e+000 1.000000e+000
    outer loop
      vertex   9.150826e+000 6.485467e-001 0.000000e+000
      vertex   8.833781e+000 5.376081e-001 0.000000e+000
      vertex   1.150000e+001 -5.000000e+000 0.000000e+000
    endloop
  endfacet
  facet normal 0.000000e+000 0.000000e+000 1.000000e+000
    outer loop
      vertex   9.851453e+000 1.349174e+000 0.000000e+000
      vertex   9.672747e+000 1.064765e+000 0.000000e+000
      vertex   1.150000e+001 -5.000000e+000 0.000000e+000
    endloop
  endfacet
  facet normal 0.000000e+000 -0.000000e+000 1.000000e+000
    outer loop
      vertex   7.000000e+000 2.000000e+000 0.000000e+000
      vertex   7.037608e+000 2.333781e+000 0.000000e+000
      vertex   -1.303761e+001 2.333781e+000 0.000000e+000
    endloop
  endfacet
  facet normal -0.000000e+000 0.000000e+000 1.000000e+000
    outer loop
      vertex   -1.356477e+001 3.172747e+000 0.000000e+000
      vertex   -1.332725e+001 2.935235e+000 0.000000e+000
      vertex   1.150000e+001 5.000000e+000 0.000000e+000
    endloop
  endfacet
  facet normal 0.000000e+000 0.000000e+000 1.000000e+000
    outer loop
      vertex   -1.750000e+001 5.000000e+000 0.000000e+000
      vertex   -1.600000e+001 2.000000e+000 0.000000e+000
      vertex   -1.596239e+001 2.333781e+000 0.000000e+000
    endloop
  endfacet
  facet normal 0.000000e+000 0.000000e+000 1.000000e+000
    outer loop
      vertex   -1.543523e+001 8.272528e-001 0.000000e+000
      vertex   -1.567275e+001 1.064765e+000 0.000000e+000
      vertex   -1.750000e+001 -5.000000e+000 0.000000e+000
    endloop
  endfacet
  facet normal 0.000000e+000 0.000000e+000 1.000000e+000
    outer loop
      vertex   7.037608e+000 1.666219e+000 0.000000e+000
      vertex   7.000000e+000 2.000000e+000 0.000000e+000
      vertex   -1.300000e+001 2.000000e+000 0.000000e+000
    endloop
  endfacet
  facet normal 0.000000e+000 0.000000e+000 1.000000e+000
    outer loop
      vertex   9.672747e+000 1.064765e+000 0.000000e+000
      vertex   9.435235e+000 8.272528e-001 0.000000e+000
      vertex   1.150000e+001 -5.000000e+000 0.000000e+000
    endloop
  endfacet
  facet normal 0.000000e+000 0.000000e+000 1.000000e+000
    outer loop
      vertex   1.150000e+001 5.000000e+000 0.000000e+000
      vertex   1.000000e+001 2.000000e+000 0.000000e+000
      vertex   9.962392e+000 1.666219e+000 0.000000e+000
    endloop
  endfacet
  facet normal -0.000000e+000 0.000000e+000 1.000000e+000
    outer loop
      vertex   9.851453e+000 2.650826e+000 0.000000e+000
      vertex   9.962392e+000 2.333781e+000 0.000000e+000
      vertex   1.150000e+001 5.000000e+000 0.000000e+000
    endloop
  endfacet
  facet normal 0.000000e+000 -0.000000e+000 1.000000e+000
    outer loop
      vertex   -1.585145e+001 2.650826e+000 0.000000e+000
      vertex   -1.567275e+001 2.935235e+000 0.000000e+000
      vertex   -1.750000e+001 5.000000e+000 0.000000e+000
    endloop
  endfacet
  facet normal 0.000000e+000 0.000000e+000 1.000000e+000
    outer loop
      vertex   -1.300000e+001 2.000000e+000 0.000000e+000
      vertex   -1.303761e+001 1.666219e+000 0.000000e+000
      vertex   7.037608e+000 1.666219e+000 0.000000e+000
    endloop
  endfacet
  facet normal -0.000000e+000 0.000000e+000 1.000000e+000
    outer loop
      vertex   9.962392e+000 1.666219e+000 0.000000e+000
      vertex   1.150000e+001 -5.000000e+000 0.000000e+000
      vertex   1.150000e+001 5.000000e+000 0.000000e+000
    endloop
  endfacet
  facet normal -0.000000e+000 0.000000e+000 1.000000e+000
    outer loop
      vertex   -1.314855e+001 2.650826e+000 0.000000e+000
      vertex   -1.303761e+001 2.333781e+000 0.000000e+000
      vertex   1.150000e+001 5.000000e+000 0.000000e+000
    endloop
  endfacet
  facet normal 0.000000e+000 0.000000e+000 1.000000e+000
    outer loop
      vertex   7.148547e+000 1.349174e+000 0.000000e+000
      vertex   7.037608e+000 1.666219e+000 0.000000e+000
      vertex   -1.750000e+001 -5.000000e+000 0.000000e+000
    endloop
  endfacet
  facet normal 0.000000e+000 0.000000e+000 1.000000e+000
    outer loop
      vertex   -1.596239e+001 1.666219e+000 0.000000e+000
      vertex   -1.600000e+001 2.000000e+000 0.000000e+000
      vertex   -1.750000e+001 5.000000e+000 0.000000e+000
    endloop
  endfacet
  facet normal -0.000000e+000 0.000000e+000 1.000000e+000
    outer loop
      vertex   9.962392e+000 2.333781e+000 0.000000e+000
      vertex   1.000000e+001 2.000000e+000 0.000000e+000
      vertex   1.150000e+001 5.000000e+000 0.000000e+000
    endloop
  endfacet
  facet normal 1.000000e+000 -2.891206e-016 1.445603e-015
    outer loop
      vertex   1.150000e+001 -5.000000e+000 -2.000000e+000
      vertex   1.150000e+001 7.000000e+000 -2.000000e+000
      vertex   1.150000e+001 5.000000e+000 0.000000e+000
    endloop
  endfacet
  facet normal 1.000000e+000 -1.734723e-015 0.000000e+000
    outer loop
      vertex   1.150000e+001 7.000000e+000 1.300000e+001
      vertex   1.150000e+001 5.000000e+000 1.300000e+001
      vertex   1.150000e+001 5.000000e+000 0.000000e+000
    endloop
  endfacet
  facet normal 1.000000e+000 -1.734723e-015 0.000000e+000
    outer loop
      vertex   1.150000e+001 5.000000e+000 0.000000e+000
      vertex   1.150000e+001 7.000000e+000 -2.000000e+000
      vertex   1.150000e+001 7.000000e+000 1.300000e+001
    endloop
  endfacet
  facet normal 1.000000e+000 0.000000e+000 0.000000e+000
    outer loop
      vertex   1.150000e+001 5.000000e+000 0.000000e+000
      vertex   1.150000e+001 -5.000000e+000 0.000000e+000
      vertex   1.150000e+001 -5.000000e+000 -2.000000e+000
    endloop
  endfacet
  facet normal -1.000000e+000 0.000000e+000 -0.000000e+000
    outer loop
      vertex   -1.750000e+001 7.000000e+000 1.300000e+001
      vertex   -1.750000e+001 7.000000e+000 -2.000000e+000
      vertex   -1.750000e+001 5.000000e+000 0.000000e+000
    endloop
  endfacet
  facet normal -1.000000e+000 0.000000e+000 0.000000e+000
    outer loop
      vertex   -1.750000e+001 -5.000000e+000 -2.000000e+000
      vertex   -1.750000e+001 -5.000000e+000 0.000000e+000
      vertex   -1.750000e+001 5.000000e+000 0.000000e+000
    endloop
  endfacet
  facet normal -1.000000e+000 0.000000e+000 -0.000000e+000
    outer loop
      vertex   -1.750000e+001 5.000000e+000 0.000000e+000
      vertex   -1.750000e+001 7.000000e+000 -2.000000e+000
      vertex   -1.750000e+001 -5.000000e+000 -2.000000e+000
    endloop
  endfacet
  facet normal -1.000000e+000 0.000000e+000 0.000000e+000
    outer loop
      vertex   -1.750000e+001 5.000000e+000 0.000000e+000
      vertex   -1.750000e+001 5.000000e+000 1.300000e+001
      vertex   -1.750000e+001 7.000000e+000 1.300000e+001
    endloop
  endfacet
  facet normal 0.000000e+000 1.000000e+000 0.000000e+000
    outer loop
      vertex   1.150000e+001 7.000000e+000 -2.000000e+000
      vertex   -1.750000e+001 7.000000e+000 -2.000000e+000
      vertex   -1.750000e+001 7.000000e+000 1.300000e+001
    endloop
  endfacet
  facet normal -0.000000e+000 1.000000e+000 0.000000e+000
    outer loop
      vertex   -1.750000e+001 7.000000e+000 1.300000e+001
      vertex   1.150000e+001 7.000000e+000 1.300000e+001
      vertex   1.150000e+001 7.000000e+000 -2.000000e+000
    endloop
  endfacet
  facet normal -5.981805e-017 -1.000000e+000 -0.000000e+000
    outer loop
      vertex   -1.750000e+001 5.000000e+000 1.300000e+001
      vertex   -1.750000e+001 5.000000e+000 0.000000e+000
      vertex   1.150000e+001 5.000000e+000 0.000000e+000
    endloop
  endfacet
  facet normal -5.981805e-017 -1.000000e+000 0.000000e+000
    outer loop
      vertex   1.150000e+001 5.000000e+000 0.000000e+000
      vertex   1.150000e+001 5.000000e+000 1.300000e+001
      vertex   -1.750000e+001 5.000000e+000 1.300000e+001
    endloop
  endfacet
  facet normal 0.000000e+000 0.000000e+000 1.000000e+000
    outer loop
      vertex   -1.750000e+001 7.000000e+000 1.300000e+001
      vertex   -1.750000e+001 5.000000e+000 1.300000e+001
      vertex   1.150000e+001 5.000000e+000 1.300000e+001
    endloop
  endfacet
  facet normal 0.000000e+000 -0.000000e+000 1.000000e+000
    outer loop
      vertex   1.150000e+001 5.000000e+000 1.300000e+001
      vertex   1.150000e+001 7.000000e+000 1.300000e+001
      vertex   -1.750000e+001 7.000000e+000 1.300000e+001
    endloop
  endfacet
endsolid
